<?xml version="1.0" standalone="no"?>
<!DOCTYPE svg PUBLIC "-//W3C//DTD SVG 1.1//EN" "http://www.w3.org/Graphics/SVG/1.1/DTD/svg11.dtd" >
<!--
2013-9-30: Created.
-->
<svg>
<metadata>
Created by iconfont
</metadata>
<defs>

<font id="iconfont" horiz-adv-x="1024" >
  <font-face
    font-family="iconfont"
    font-weight="500"
    font-stretch="normal"
    units-per-em="1024"
    ascent="896"
    descent="-128"
  />
    <missing-glyph />
    
    <glyph glyph-name="jikediancanicon42" unicode="&#59289;" d="M190.976 688.192l0-772.896L103.744-84.704 103.744 688.192 190.976 688.192M231.904 729.216 65.824 729.216 65.824-130.72l166.112 0L231.936 729.216 231.904 729.216 231.904 729.216zM432.608 309.632l0-395.328-88.064 0L344.544 309.632 432.608 309.632M471.616 348.672 305.504 348.672 305.504-130.72l166.112 0L471.616 348.672 471.616 348.672 471.616 348.672zM681.728 407.456l0-491.168-93.056 0L588.672 407.456 681.728 407.456M719.744 447.488l-166.112 0L553.632-130.72l166.112 0L719.744 447.488 719.744 447.488 719.744 447.488zM923.424 215.136l0-305.824-95.072 0 0 305.824L923.424 215.136M959.424 256.16l-166.112 0 0-386.88 166.112 0L959.424 256.16 959.424 256.16 959.424 256.16zM959.424 256.16"  horiz-adv-x="1024" />

    
    <glyph glyph-name="shangchuanmoban" unicode="&#58917;" d="M830.59871 248.785571M536.729729 295.053338l141.262304 0 0-52.569286-141.262304 0 0 52.569286ZM508.758678 295.053338 335.69611 295.053338 335.69611 240.66973 451.606003 240.66973 451.606003 92.165488 451.606003 66.805914 563.897486 66.805914 563.897486 122.949608 508.758678 124.758814ZM828.318784 474.305885c1.810229 38.034245 1.810229 61.576427-25.350364 86.932931-61.58359 54.333466-81.505315 99.605555-88.750323 114.100688-7.236821 14.487969-39.838334 57.951877-86.933955 25.350364-126.772288-90.553389-177.487344-76.064396-315.12919-101.420901C174.514127 573.91758 192.620507 443.519718 192.620507 443.519718s-7.245008-54.338582 0-184.736445c36.225039-220.958414 166.623925-297.022811 166.623925-297.022811l-1.810229-67.011206 7.237845 0 74.261331 0 0 27.172873 148.511405 1.809205 1.809205-28.981055 76.06542 0c0 0-1.815345 16.302291-1.815345 67.011206 164.81472 83.307358 165.481915 316.942489 165.481915 316.942489S826.509579 436.269593 828.318784 474.305885zM710.593546 135.628372c0 0-24.913413-139.514497-188.350762-164.80858-105.046474 5.428639-181.110871 39.83731-213.713406 155.754367-3.619434 108.660792 0 190.159968 0 190.159968s-1.810229 57.95904 25.356504 68.827575l347.731726 0c0 0 23.547299 1.809205 28.974915-63.393819L710.592522 135.628372zM766.742357 369.26555c0 0-25.357528 74.254168-134.023436 76.064396-108.666932 1.809205-280.718473-1.810229-280.718473-1.810229s-72.447009-7.250124-95.994308-74.260308c0 0-5.427616 77.879742 0 112.290459 5.434779 34.409694 47.089481 74.256214 148.511405 56.141648 67.011206-10.863419 153.945161 32.601512 211.904201 77.874625 30.78412 30.79026 41.653679 43.469024 59.760059 0 18.113543-43.463907 68.827575-77.874625-19.916609-86.927815-18.113543-18.113543-3.625574-61.576427 34.404578-56.141648 38.035268 5.434779 65.202001 28.974915 76.071559 54.331419C770.367931 476.12123 766.742357 369.26555 766.742357 369.26555z"  horiz-adv-x="1024" />

    
    <glyph glyph-name="er" unicode="&#59013;" d="M727.101521 656.903619c4.470825-4.606925 8.94165-9.206686 13.414521-13.814634 31.614022-40.509622 59.07649-83.143629 70.040193-134.447085 17.685801-82.768075 8.132214-162.057933-29.445636-238.002602-18.968004-38.327934-41.829687-74.297147-64.946174-110.177332-24.419156-37.902238-44.042075-78.039377-53.302997-122.601292-5.669116-9.869788-8.129144-20.719904-9.774621-31.824823-15.58086-41.10007-32.722262-81.478709-55.341423-119.315456-13.895475-16.506952-28.733415-32.082696-45.38363-45.860491-99.532901-39.281655-176.161139-13.722536-233.800907 77.945233-2.828418 4.497431-5.939269 8.815783-8.91709 13.219069-2.299369 4.749164-4.598738 9.505491-6.89606 14.256702-6.687306 17.170055-10.021238 34.974559-10.118452 53.392024 3.561106 10.900258 3.222391 22.179139 3.184529 33.419134 4.240581 19.193131 6.931876 38.877449 16.743336 56.386218 13.599739 24.257473 30.715559 27.440979 51.468209 8.830109 14.758122-13.231349 28.92375-26.901697 49.923016-29.220508 51.475372-0.563842 79.540567 17.291828 99.621928 63.33856 6.966669 15.972786 11.56336 33.04972 22.10546 47.353494 17.530258 31.956829 38.057781 62.673411 51.938929 96.14678 25.192775 60.750619 20.895913 120.16173-24.799826 170.811294-37.08257 41.105187-84.932368 58.289568-138.793066 42.208311-61.365626-18.323321-92.171236-65.86101-108.209514-126.335337-9.484002-1.37123-12.186554 10.43056-19.85521 14.518668-4.357238 6.266727-8.715499 12.527314-13.074783 18.794042-6.264681 12.137435-12.527314 24.266683-18.791995 36.404118-2.814092 7.946996-5.631254 15.892969-8.446369 23.840988-1.62501 19.528775-8.170077 39.10667 0.627287 58.522881 7.391341 16.893762 14.782681 33.787524 22.172999 50.679239 27.897374 46.601364 58.875922 90.746794 103.956653 122.587989 16.677844 11.779278 34.912138 21.357424 52.435233 31.943526 15.243169 5.060249 30.492478 10.120498 45.738717 15.180747 21.265326 1.672082 42.532699 3.348258 63.799048 5.024433 9.201569-1.281179 18.403139-2.567475 27.605731-3.849678 15.176654-3.429099 30.352285-6.862291 45.529963-10.295484 6.252401-2.603291 12.505825-5.208629 18.758226-7.817036 13.250792-6.777357 26.499537-13.5629 39.752376-20.340257 6.500041-4.617158 12.997012-9.233292 19.497053-13.845333C706.045973 674.939391 716.570677 665.920994 727.101521 656.903619zM359.999632 345.105291c-0.203638 15.688307 10.958586 27.099195 15.46318 41.016159 52.506864 60.819181 115.532293 65.032132 161.371294 10.793834 31.273261-37.000706 36.241412-89.577155 8.399297-134.552485-20.644179-33.345456-33.639145-69.314669-46.609551-105.650225-3.518127-12.573363-9.199523-23.246447-23.300682-26.513864-48.597835-17.402345-75.939553-5.29254-101.717659 45.069475 0.107447 17.989723 17.470907 28.712949 19.35379 45.950542 13.094226 22.520923 13.903661 44.104497-4.912893 64.184835-4.40431 6.350638-8.807596 12.701277-13.211906 19.048845C369.891933 318.007119 364.945271 331.5516 359.999632 345.105291z"  horiz-adv-x="1024" />

    
    <glyph glyph-name="yinshi" unicode="&#59392;" d="M434.517333 896c-11.797333 0-21.354667-9.557333-21.333333-21.354667l0-309.866667c0-66.368-48.704-121.429333-112.213333-131.690667L300.970667 874.645333c0 11.797333-9.6 21.354667-21.376 21.354667-11.776 0-21.376-9.557333-21.376-21.354667l0-441.557333c-63.488 10.282667-112.170667 65.344-112.170667 131.690667L146.048 874.645333C146.048 886.442667 136.490667 896 124.693333 896 112.874667 896 103.317333 886.442667 103.296 874.645333l0-309.888c0-89.962667 67.754667-164.288 154.922667-174.869333l0-496.512c0-11.818667 9.578667-21.376 21.376-21.376 11.797333 0 21.376 9.557333 21.376 21.376L300.970667 389.888c87.146667 10.602667 154.922667 84.906667 154.922667 174.890667L455.893333 874.645333C455.893333 886.442667 446.336 896 434.517333 896zM705.664 896c-11.797333 0-21.354667-9.557333-21.354667-21.354667l0-981.269333c0-11.818667 9.557333-21.376 21.354667-21.376 11.818667 0 21.376 9.557333 21.376 21.376L727.04 336.789333l172.288 0c11.84 0 21.354667 9.536 21.354667 21.376C920.682667 659.754667 826.24 896 705.664 896zM727.04 379.541333 727.04 849.322667c87.04-32.277333 146.944-258.304 150.741333-469.781333L727.04 379.541333z"  horiz-adv-x="1024" />

    
    <glyph glyph-name="zhusheqi" unicode="&#58929;" d="M881.556289 753.742019c-7.994068 7.990998-20.952194 7.990998-28.943193-0.00307L749.567185 650.673595l-6.800893 6.814196c-8.772804 8.713452-20.409842 13.512758-32.767288 13.512758-12.386098 0-24.020066-4.818749-32.766264-13.57518-1.286296-1.288343-2.469238-2.641153-3.572362-4.036943l-38.319747 38.320771c-12.814864 12.809747-29.845749 19.863397-47.955198 19.863397s-35.141358-7.054673-47.958268-19.865443L231.691361 384.007163l-39.748283 39.745213c-7.993045 7.993045-20.952194 7.992021-28.943193-0.001023-7.993045-7.993045-7.992021-20.951171 0.001023-28.943193l165.357072-165.342746-43.033096-43.078121L174.187693 297.515277c-7.993045 7.993045-20.952194 7.992021-28.943193-0.001023-7.992021-7.993045-7.992021-20.952194 0.001023-28.943193l251.203252-251.183809c3.996011-3.996011 9.233292-5.993504 14.471596-5.993504s10.476609 1.998517 14.47262 5.994528c7.992021 7.993045 7.992021 20.952194-0.001023 28.943193L314.269102 157.445124l43.033096 43.077098 41.765219-41.762149 69.359694-69.359694c0.01842-0.019443 0.038886-0.033769 0.058328-0.052189l54.188156-54.184063c3.996011-3.996011 9.233292-5.993504 14.471596-5.993504s10.475586 1.998517 14.47262 5.994528c7.993045 7.993045 7.992021 20.952194-0.001023 28.943193l-39.769772 39.766702 307.720454 307.699987c26.37981 26.434046 26.381857 69.455885-0.01535 95.92063l-38.325887 38.325887c1.394766 1.108241 2.741437 2.293229 4.018523 3.573385 8.783037 8.767688 13.614066 20.425192 13.602809 32.82664-0.01228 12.382005-4.852518 24.007787-13.577227 32.6844l-6.785543 6.797823 103.075587 103.094006C889.550357 732.791871 889.549334 745.749998 881.556289 753.742019zM790.608927 440.504922l-307.708174-307.686684-43.396369 43.392276L260.64274 355.071134l63.615876 63.608713 111.143333-111.143333c3.997034-3.997034 9.233292-5.994528 14.471596-5.994528 5.237281 0 10.475586 1.998517 14.471596 5.993504 7.993045 7.993045 7.993045 20.951171 0 28.943193l-111.141286 111.143333 36.473703 36.46961 68.332295-68.333318c3.997034-3.997034 9.233292-5.994528 14.471596-5.994528 5.237281 0 10.475586 1.998517 14.471596 5.994528 7.993045 7.992021 7.993045 20.951171 0 28.943193l-68.330248 68.331271 38.407752 38.403658 68.356854-68.357877c3.997034-3.997034 9.233292-5.994528 14.47262-5.994528 5.237281 0 10.475586 1.998517 14.47262 5.994528 7.992021 7.993045 7.993045 20.951171 0 28.943193l-68.356854 68.356854 36.817534 36.81344 111.104447-111.129007c3.996011-3.998057 9.233292-5.995551 14.473643-5.995551 5.236258 0 10.474562 1.998517 14.470573 5.992481 7.994068 7.992021 7.994068 20.950148 0.00307 28.943193l-111.10547 111.131053 16.626679 16.624632c5.084808 5.081739 11.838629 7.880481 19.019169 7.880481s13.934361-2.798742 19.016099-7.877411l70.521147-70.521147c0.11154-0.11461 0.215918-0.234337 0.328481-0.347924l26.881231-26.861788 86.457094-86.457094C801.06507 468.068697 801.067116 450.985624 790.608927 440.504922zM706.151373 620.897432c-2.034333 2.143826-2.02717 5.5279 0.047072 7.606235 1.292436 1.293459 2.7793 1.564635 3.800559 1.564635 1.044796 0 2.572592-0.281409 3.858888-1.559519l42.49279-42.571584c1.289366-1.281179 1.560542-2.7486 1.561565-3.752464 0-1.01819-0.275269-2.5071-1.6158-3.845585-1.298576-1.300622-2.772136-1.574868-3.780093-1.574868-1.013073 0-2.495844 0.276293-3.813862 1.593288l-17.105586 17.093307L706.151373 620.897432z"  horiz-adv-x="1024" />

    
    <glyph glyph-name="chengyuan" unicode="&#58896;" d="M786.432 256.78019c-49.517714 38.497524-106.691048 67.559619-168.740571 84.845714C713.898667 389.558857 780.190476 488.643048 780.190476 603.428571c0 161.572571-130.998857 292.571429-292.571429 292.571429C326.046476 896 195.047619 765.001143 195.047619 603.428571c0-114.858667 66.340571-213.991619 162.645333-261.87581C151.552 284.647619 0 96.231619 0-128l48.761905 0c0 242.371048 196.486095 438.857143 438.857143 438.857143 95.963429 0 184.417524-31.134476 256.633905-83.382857C757.394286 238.396952 771.584 248.05181 786.432 256.78019zM243.809524 603.428571c0 134.631619 109.153524 243.809524 243.809524 243.809524 134.631619 0 243.809524-109.177905 243.809524-243.809524s-109.177905-243.809524-243.809524-243.809524C352.963048 359.619048 243.809524 468.796952 243.809524 603.428571zM1011.736381 42.666667 889.831619 42.666667 889.831619 164.571429 841.069714 164.571429 841.069714 42.666667 719.164952 42.666667 719.164952-6.095238 841.069714-6.095238 841.069714-128 889.831619-128 889.831619-6.095238 1011.736381-6.095238Z"  horiz-adv-x="1024" />

    
    <glyph glyph-name="qi" unicode="&#58919;" d="M418.625868 219.168907M634.401236 748.423897c-44.775786 0-89.151459-9.020444-132.066875-17.755386-42.650379-8.667404-82.915431-16.870226-123.244952-16.870226-31.330566 0-59.190077 5.130857-85.125773 15.677051-2.409886 0.972141-4.930289 1.348718-7.451716 1.460258-0.308015 0.021489-0.550539 0.176009-0.861624 0.176009-0.265036 0-0.464581-0.132006-0.728594-0.154519-2.566452-0.089028-5.064342-0.553609-7.452739-1.503237-0.420579-0.177032-0.795109-0.420579-1.215688-0.620124-0.995677-0.441045-2.012843-0.840134-2.940982-1.479701-0.928139-0.620124-1.703805-1.437745-2.521426-2.188852-0.331551-0.310062-0.707105-0.553609-1.017166-0.88516-1.723248-1.791809-3.071965-3.846608-4.111644-6.081509-0.222057-0.48607-0.375553-0.972141-0.575098-1.479701-0.906649-2.454912-1.547239-5.02034-1.547239-7.695263l0-299.773458 0-363.54283c0-12.205996 9.904581-22.112624 22.109554-22.112624 12.20395 0 22.109554 9.907651 22.109554 22.112624L307.758828 378.867096c22.420639-5.901407 45.924959-9.042957 71.352071-9.042957 44.773739 0 89.149413 9.020444 132.065851 17.755386 42.653449 8.665357 82.913385 16.870226 123.244952 16.870226 31.330566 0 59.167564-5.128811 85.104283-15.677051 6.78759-2.76395 14.550391-1.965771 20.673855 2.143826 6.101975 4.113691 9.771551 10.991332 9.771551 18.35402L749.971391 709.022515c0 8.998955-5.460362 17.092283-13.774725 20.47431C704.867124 742.255407 671.569764 748.423897 634.401236 748.423897zM705.753307 439.870472c-22.376637 5.884011-45.946448 8.777921-71.329559 8.777921-44.773739 0-89.149413-9.020444-132.066875-17.755386-42.629913-8.68787-82.914408-16.870226-123.243929-16.870226-25.869181 0-49.350988 3.493567-71.352071 10.635221L307.760874 678.377564c22.376637-5.881964 45.968961-8.777921 71.352071-8.777921 44.773739 0 89.149413 9.020444 132.065851 17.753339 42.653449 8.69094 82.913385 16.870226 123.244952 16.870226 25.848715 0 49.350988-3.493567 71.352071-10.635221l0-253.718539L705.753307 439.869449z"  horiz-adv-x="1024" />

    
    <glyph glyph-name="zhongyi" unicode="&#59095;" d="M382.346-40.1c14.236 0 28.005 0 42.991 0 0 26.132 0 51.257 0 76.438 9.463 0 17.669 0 26.271 0 0-35.214 0-69.587 0-104.468-34.558 0-68.45 0-103.307 0 0 98.682 0 196.604 0 296.68-101.671 0-201.512 0-301.511 0 0 33.304 0 65.287 0 97.777 36.972 0 73.287 0 109.928 0 0-8.574 0-16.414 0-25.793-26.406 0-52.257 0-78.375 0 0-17.048 0-32.537 0-48.543 41.708 0 82.786 0 124.208 0 0 42.487 0 84.075 0 126.2-67.164 0-133.655 0-200.353 0 0-66.371 0-131.95 0-198.801 100.498 0 199.949 0 300.307 0 0-99.192 0-197.112 0-295.319 65.312 0 129.688 0 193.888 0 0 69.093 0 137.222 0 205.528-38.379 0-75.948 0-114.046 0C382.346 46.059 382.346 3.232 382.346-40.1zM302.082 587.307c-100.706 0-200.156 0-300.082 0 0-65.963 0-130.752 0-195.551 67.316 0 133.777 0 200.543 0 0 42.541 0 84.121 0 126.078-41.815 0-82.951 0-123.827 0 0-16.756 0-32.59 0-49.425 26.55 0 52.117 0 77.647 0 0-9.205 0-17.346 0-25.319-37.001 0-73.029 0-109.375 0 0 32.914 0 65.171 0 98.704 100.667 0 200.488 0 301.241 0 0 99.179 0 197.083 0 295.621 35.66 0 69.584 0 103.028 0 0-35.336 0-69.669 0-104.075-9.229 0-17.425 0-27 0 0 25.562 0 50.257 0 74.685-14.851 0-28.289 0-41.803 0 0-43.75 0-86.582 0-129.723 38.471 0 76.299 0 113.941 0 0 69.199 0 137.337 0.001 205.628-64.892 0-128.975 0-194.316 0C302.082 784.914 302.082 686.69 302.082 587.307zM821.407 251.806c42.332 0 83.93 0 125.984 0 0 16.511 0 32.293 0 49.325-27.215 0-53.564 0-80.168 0 0 9.105 0 16.94 0 25.112 36.964 0 73.276 0 109.422 0 0-33.059 0-65.302 0-98.482-100.624 0-200.154 0-301.017 0 0-99.18 0-197.403 0-295.787-35.261 0-69.171 0-103.166 0 0 35.232 0 69.597 0 104.58 8.666 0 16.568 0 26.612 0 0-25.908 0-51.03 0-76.583 14.965 0 28.68 0 42.129 0 0 43.882 0 86.694 0 129.57-38.38 0-75.942 0-113.896 0 0-68.884 0-137.014 0-205.457 65.033 0 129.412 0 194.701 0 0 98.888 0 196.826 0 296.419 100.652 0 200.403 0 299.815 0 0 66.947 0 132.222 0.003 197.559-67.46 0-133.955 0-200.42 0C821.407 335.487 821.407 293.838 821.407 251.806zM721.618 587.533c0 99.371 0 197.616 0 296.123-65.553 0-129.878 0-194.111 0 0-69.167 0-137.25 0-205.637 38.408 0 75.969 0 113.619 0 0 43.923 0 87.051 0 130.012-14.34 0-27.76 0-42.623 0 0-25.549 0-50.202 0-74.571-9.678 0-17.859 0-25.973 0 0 35.371 0 69.712 0 104.013 34.755 0 68.635 0 103.855 0 0-99.117 0-197.303 0-296.354 100.878 0 200.41 0 300.609 0 0-33.136 0-65.393 0-97.812-37.058 0-73.352 0-109.711 0 0 8.73 0 16.572 0 25.618 27.008 0 53.328 0 80.217 0 0 17.007 0 32.78 0 49.14-42.372 0-83.99 0-125.919 0 0-42.578 0-84.472 0-126.179 67.351 0 133.804 0 200.418 0.001 0 65.558 0 130.031 0 195.646C921.763 587.533 822.297 587.533 721.618 587.533z"  horiz-adv-x="1024" />

    
    <glyph glyph-name="chanke" unicode="&#58882;" d="M707.4968-127.087304C669.452974-127.176348 265.484974-128 146.166713-128 137.596278-111.705043 128.380278-92.850087 118.652278-71.056696 63.044626 53.693217 149.572626 234.74087 160.703061 271.805217 171.855756 308.869565 162.2168 356.819478 118.652278 558.413913 87.331235 703.421217 124.106191 833.914435 147.235235 895.75513 162.150017 896 160.703061 896 160.703061 896L357.021669 895.933217C357.021669 895.933217 402.033148 866.281739 433.754887 848.873739 626.0888 748.633043 612.7768 635.058087 559.573321 576.75687 558.527061 575.977739 557.903756 574.753391 557.903756 573.44 557.903756 571.725913 558.994539 570.167652 560.597321 569.58887 630.162539 542.98713 863.41193 464.228174 907.399408 233.026783 931.151756 108.232348 883.691582 29.094957 839.793148-13.401043 809.540626 4.85287 777.217843 1.068522 739.263061-17.764174 668.384452 48.818087 523.288104 194.137043 454.212626 261.676522 442.436626 274.988522 435.558017 291.973565 434.778887 309.76 418.394887 436.602435 395.889148 647.346087 394.887408 689.285565 389.767408 895.933217 91.0488 865.257739 179.023756 605.406609 204.601495 529.697391 273.142713 287.232 292.576452 243.244522 312.010191 199.257043 317.130191 173.679304 378.503408 128.667826 412.963235 103.290435 659.457843-55.56313 703.556626-116.268522 704.758713-119.897043 706.072104-123.503304 707.4968-127.087304Z"  horiz-adv-x="1025" />

    
    <glyph glyph-name="erke" unicode="&#59565;" d="M518.021134-62.39891c-139.627061 0-266.197758 74.456782-338.576206 199.180412l-3.321652 5.722328-6.606464 0.412393c-62.467727 3.900843-111.400183 58.320267-111.400183 123.892705 0 44.363394 22.827915 85.630263 59.57791 107.70093l5.473665 3.28686 0.491187 6.361894c7.982812 103.301737 52.680826 199.059662 125.861546 269.632997 73.318866 70.704318 168.673607 109.644189 268.500197 109.64419 14.767332 0 29.53978-0.845251 43.910069-2.511194 8.92937-1.036609 15.365966-9.683547 14.344706-19.274995-0.936325-8.788154-7.836479-15.417131-16.041348-15.417132-0.584308 0-1.177825 0.034792-1.771343 0.103354-13.232372 1.534959-26.837228 2.312672-40.442084 2.312672-196.019419 0-355.475084-159.595858-363.019921-363.334075l-0.422625-11.414981-9.923-4.116761c-32.909527-13.654998-54.169737-46.224788-54.169737-82.972736 0-49.259914 38.672788-89.339748 86.206384-89.339748 2.453888 0 4.856611 0.105401 7.234774 0.312109l10.245342 0.870833 5.083785-9.653871c63.894216-121.281227 186.036044-196.623169 318.764998-196.623169 130.75295 0 252.013711 73.686233 316.449255 192.299701l4.630461 8.521071 9.17087 0.110517c47.000454 0.553609 85.24243 40.628326 85.242429 89.334631 0 32.131815-16.790408 61.933561-43.813878 77.763084l-8.315386 4.877078-0.125867 10.171663c-0.946558 78.548984-24.819269 153.566538-69.031212 216.942961-5.506411 7.896854-3.880377 18.952654 3.628643 24.642237 2.743484 2.081405 5.959735 3.181459 9.296737 3.181458 5.149277 0 9.880021-2.538823 12.96529-6.965645 45.248553-64.856124 71.199599-141.534504 75.045183-221.754546l0.272199-5.687536 4.499478-3.492544c30.022781-23.298636 47.947012-60.560284 47.947012-99.673094 0-61.667501-43.930535-114.521267-102.184287-122.952286l-5.858428-0.850368-3.01466-5.094018c-72.685439-122.825396-198.592011-196.149379-336.803839-196.149379z m-6.025227 125.564788c-100.17656 0-190.349279 58.144258-235.326657 151.741982-4.195555 8.727779-0.910743 19.323091 7.318686 23.615861 2.226714 1.162476 4.595668 1.757017 7.039324 1.757017 6.090718 0 11.609409-3.614317 14.405081-9.431814 39.390125-81.976036 118.53979-132.902916 206.563566-132.902915 82.686211 0 159.538553 46.446845 200.563921 121.210619a235.795331 235.795331 0 0 1 5.974062 11.626805c2.788509 5.863545 8.319479 9.497305 14.430664 9.497305 2.426259 0 4.776793-0.584308 6.996345-1.731434 8.239662-4.263094 11.556197-14.843056 7.389294-23.586185a262.145465 262.145465 0 0 0-6.910387-13.458523c-46.829562-85.334527-134.36215-138.338718-228.443899-138.338718z m172.549891 256.256338c-24.667819 0-44.734854 21.149693-44.734854 47.150879 0 26.002211 20.067035 47.15395 44.734854 47.15395 11.68718 0 22.745027-4.726651 31.136138-13.305027 8.772804-8.971325 13.604856-20.989033 13.604856-33.848923-0.001023-26.001187-20.068058-47.15088-44.740994-47.150879z m-340.269777 0c-24.667819 0-44.737924 21.149693-44.737924 47.150879 0 26.002211 20.070104 47.15395 44.737924 47.15395 11.685133 0 22.74298-4.726651 31.135114-13.308097 8.770757-8.964162 13.599739-20.985964 13.59974-33.845853 0.001023-26.001187-20.067035-47.15088-44.734854-47.150879z m302.142411 254.370385c-32.378431 0-62.915935 13.094226-85.997629 36.868699-6.639211 6.839779-6.699586 18.038842-0.130983 24.967648 3.045359 3.211135 7.066953 4.980431 11.330046 4.980431 4.187369 0 8.169053-1.721201 11.199063-4.842285 17.012466-17.533328 39.60195-27.189246 63.599503-27.189246 24.405853 0 47.26242 9.93528 64.354704 27.977192 34.694173 36.57194 34.371832 95.729272-0.724501 131.8704-16.629749 17.117866-38.650275 26.773783-62.009286 27.192315-8.92937 0.160659-16.065907 8.100492-15.910364 17.699104 0.155543 9.419534 7.408737 17.083074 16.167214 17.083074 31.810496-0.568958 61.58666-13.658068 84.140329-36.860513 48.394197-49.821709 48.842405-131.380236 0.9967-181.802626-23.188118-24.470321-54.086849-37.944194-87.014796-37.944193z"  horiz-adv-x="1024" />

    
    <glyph glyph-name="xiazai4-copy" unicode="&#58889;" d="M639.628-12.288c-99.47 0-428.239 0-428.239 0-54.57 0-98.809 39.115-98.809 93.685v603.821c0 54.57 44.237 98.806 98.809 98.806h600.628c54.57 0 93.69-44.237 93.69-98.806 0 0 0-327.657 0-428.886 0-25.87 18.095-35.84 28.69-35.84 9.889 0 25.030 5.639 25.030 35.84 0 14.505 0 430.221 0 430.221 0 80.317-65.11 145.427-145.425 145.427h-604.594c-80.315 0-145.425-65.11-145.425-145.427v-604.591c0-80.32 65.11-145.43 145.425-145.43 0 0 329.047 0 430.221 0 11.385 0 41.305-2.24 40.96 23.36-0.485 35.84-29.7 27.82-40.96 27.82zM959.429-25.183l-248.695 248.695c35.525 43.93 56.815 99.85 56.815 160.745 0 141.297-114.55 255.842-255.844 255.842-141.297 0-255.842-114.545-255.842-255.842 0-141.295 114.545-255.844 255.844-255.844 60.892 0 116.812 21.29 160.743 56.815l248.699-248.694c0 0 27.49-25.010 47.385-5.12 18.51 18.503-9.104 43.403-9.104 43.403zM511.706 192.372c-105.974 0-191.882 85.91-191.882 191.884 0 105.972 85.907 191.882 191.882 191.882 105.972 0 191.882-85.91 191.882-191.882 0-105.974-85.91-191.884-191.882-191.884z"  horiz-adv-x="1024" />

    
    <glyph glyph-name="meirong-heicopy" unicode="&#58924;" d="M574.459-70.66c98.077 34.96 158.708 110.218 188.11 231.846 11.758 42.821 18.537 91.997 18.586 142.748l-0.009 7.915c2.34 59.973-20.478 126.967-97.346 228.116l-20.698 27.134-12.214-32.619c-22.307-59.095-92.446-103.636-197.398-134.427-57.852-16.968-107.146-25.818-184.892-36.422-12.853-1.992-24.377-5.246-35.278-9.708-27.913-5.066-29.229-60.358-11.822-148.781 26.256-169.313 87.765-230.968 226.726-274.997l-2.048-14.92h-184.087c-92.738 0-150.151 58.364-150.151 151.175v373.44c0 135.67 40.299 251.593 169.46 339.577 64.361 42.273 122.944 64.434 189.426 72.406 208.734 21.576 390.554-126.674 428.074-318.587 6.436-36.13 9.654-64.946 9.654-93.397 0.439-7.753 1.097-19.308 1.755-35.106 2.487-62.021 2.56-127.991-1.463-189.572l-0.219-4.096c-2.414-32.912-5.266-62.167-8.484-87.765-6.144-49.953-12.214-77.526-15.871-87.765-21.356-85.863-63.995-121.408-121.408-121.408h-186.354l-2.048 15.213zM742.383 312.8v-11.409c0-41.103-5.705-84.62-17.26-129.234-27.646-114.533-83.377-179.479-177.358-207.637l-16.456-4.9 11.556-87.619h219.998c74.966 0 132.964 48.417 158.196 150.517 4.242 11.409 10.971 42.127 17.553 95.152 3.291 26.403 6.217 56.389 8.703 90.179l0.293 4.388c2.113 33.523 3.318 72.697 3.318 112.152 0 41.158-1.311 82.011-3.892 122.517 0.282 24.457-3.229 55.759-10.177 94.669-41.615 213.049-241.207 375.78-469.981 352.157-72.479-8.63-136.401-32.912-205.809-78.403-142.911-97.346-187.89-226.799-187.89-375.488v-373.44c0-116.727 75.332-193.229 188.914-193.229h217.803l11.556 87.692-16.529 4.827c-137.498 40.591-190.743 89.374-215.317 247.351-11.995 61.289-10.971 103.124 1.828 106.269 4.388 1.097 11.19 2.414 9.654 2.414 81.914 10.971 132.452 20.113 192.571 37.739 99.467 29.109 172.019 70.431 208.296 129.161 56.316-79.135 72.187-130.331 70.431-175.822zM658.275 268.917c26.768 0 48.49-33.936 48.49-14.627 0 19.381-21.722 35.106-48.49 35.106-26.768 0-48.49-15.725-48.49-35.106 0-19.308 21.722 14.627 48.49 14.627zM346.197 268.917c26.841 0 48.49-33.936 48.49-14.627 0 19.381-21.649 35.106-48.49 35.106-26.768 0-48.417-15.725-48.417-35.106 0-19.308 21.649 14.627 48.417 14.627z"  horiz-adv-x="1024" />

    
    <glyph glyph-name="guke" unicode="&#59022;" d="M580.923 300.442c-4.075 0-8.448 0.622-13.107 2.059-26.902 8.287-31.567 32.656-33.319 41.823-0.993 5.179-2.414 10.307-3.815 15.421-2.128 7.808-4.334 15.875-5.515 24.628-4.328 32.021-16.183 53.166-38.445 68.549-15.865 10.961-20.186 23.935-21.017 32.889-0.889 9.556 1.324 24.246 16.89 39.933l3.621 3.645c28.232 28.447 57.418 57.866 86.765 86.301-29.51 54.545-25.883 109.038 10.486 157.64 36.686 48.99 89.659 68.503 149.173 54.998 58.89-13.389 97.03-51.955 110.306-111.531 0.117-0.492 0.221-0.893 0.311-1.224 0.545-0.155 1.311-0.356 2.375-0.583 72.374-15.583 122.647-84.74 114.433-157.452-8.383-74.408-71.115-130.513-145.967-130.552-25.773 0.091-49.586 5.749-70.336 18.173-26.694-27.081-53.622-53.949-80.562-80.817a23848.053 23848.053 0 0 1-44.719-44.685c-6.647-6.668-19.17-19.215-37.558-19.215z m115.341 492.354c-32.183 0-59.293-14.483-80.861-43.273-26.837-35.873-29.264-74.647-7.176-115.253 12.588-23.126 2.699-37.239-7.306-46.957-29.134-28.214-58.229-57.542-86.37-85.906l-3.627-3.651c-5.34-5.38-5.522-8.268-5.522-8.293 0.097-0.285 1.09-1.819 4.016-3.833 31.398-21.695 49.469-53.075 55.257-95.947 0.831-6.137 2.595-12.612 4.477-19.474 1.661-6.112 3.309-12.236 4.503-18.426 1.921-10.048 3.776-10.618 5.931-11.278 1.531-0.479 2.582-0.855 10.628 7.212 14.911 14.942 29.861 29.846 44.797 44.762 27.343 27.256 54.673 54.532 81.782 82.034 14.002 14.217 29.367 16.198 45.68 5.866 14.742-9.329 32.106-14.088 51.169-13.609h0.389c55.464-0.006 100.21 40.03 106.426 95.216 5.944 52.667-30.626 102.79-83.236 114.12-12.744 2.739-28.031 8.863-33.196 32.067-9.837 44.121-36.829 71.501-80.238 81.374-9.55 2.168-18.725 3.249-27.523 3.249zM320.938-65.103h-0.415c-68.02 0.181-127.416 47.961-141.224 113.609-0.363 1.722-0.694 2.667-0.882 3.121-0.182-0.013-1.415 0.414-3.822 0.984-58.696 14.191-96.518 52.311-109.372 110.242-13.159 59.355 6.657 112.12 55.789 148.582 47.367 35.142 102.507 39.117 155.298 11.11a54.38 54.38 0 0 1 1.668-0.829 48.537 48.537 0 0 1 1.998 1.968c28.738 29.38 58.352 58.76 86.993 87.168l12.731 12.625c23.047 22.886 45.427 23.87 70.447 3.095l0.565-0.479c39.074-25.664 61.084-61.388 65.515-106.254 1.635-16.496 6.411-33.083 11.472-50.628 6.099-21.171 1.213-38.949-14.191-53.982-8.545-8.365-16.994-16.859-25.442-25.34-12.627-12.689-25.669-25.793-39.003-38.418 25.455-45.863 24.988-99.858-1.33-144.633-26.482-45.073-73.861-71.941-126.795-71.941zM205.986 301.374c-21.088 0-41.54-7.29-61.187-21.87-36.816-27.308-50.494-63.667-40.651-108.054 9.467-42.691 36.33-69.662 79.842-80.176 13.276-3.211 29.16-10.048 34.318-34.585 9.973-47.391 52.999-81.885 102.319-82.015h0.305c38.64 0 73.165 19.526 92.411 52.285 19.245 32.746 19.407 72.355 0.435 105.969-6.32 11.226-12.504 28.189 6.528 46.161 13.354 12.586 26.636 25.936 39.477 38.832 8.571 8.611 17.143 17.221 25.825 25.715 5.327 5.205 5.703 7.911 4.114 13.414-5.665 19.656-11.18 38.78-13.165 58.876-3.322 33.627-18.804 58.268-48.71 77.561l-3.692 2.939c-5.626 4.648-8.124 5.115-8.305 5.141 0.019-0.039-2.433-0.738-8.02-6.28l-12.75-12.651c-28.537-28.305-58.04-57.568-86.564-86.741-11.31-11.55-26.201-21.598-50.922-8.468-17.543 9.299-34.777 13.947-51.608 13.947zM258.855 676.884c4.392 0.068 7.298-2.179 9.996-4.869 25.455-25.387 50.867-50.816 76.405-76.119 6.595-6.534 6.93-12.715 0.183-19.207-3.027-2.913-6.171-5.747-8.888-8.933-7.926-9.296-14.96-8.39-23.296 0.162-23.135 23.735-46.849 46.908-70.276 70.361-11.912 11.924-11.979 14.27-0.127 25.977 4.886 4.825 8.812 11.067 16.003 12.628zM245.987 518.223c12.134 0.003 24.282-0.365 36.397 0.108 11.618 0.454 16.191-4.959 15.57-16.01-0.235-4.178-0.054-8.379-0.041-12.57 0.03-9.179-4.588-13.76-13.744-13.766-26.134-0.019-52.268-0.004-78.402-0.01-9.001-0.002-14.049 4.085-14.047 13.439 0.001 5.122 0.075 10.245-0.015 15.366-0.163 9.314 4.361 13.6 13.681 13.484 13.532-0.169 27.067-0.044 40.601-0.041zM416.527 688.765c0.003-12.107-0.366-24.228 0.109-36.316 0.455-11.593-4.97-16.155-16.046-15.535-4.187 0.234-8.398 0.054-12.598 0.04-9.199-0.03-13.79 4.578-13.797 13.713-0.019 26.076-0.004 52.152-0.01 78.228-0.002 8.981 4.094 14.018 13.469 14.016 5.133-0.001 10.268-0.075 15.4 0.015 9.335 0.163 13.63-4.351 13.514-13.651-0.17-13.502-0.044-27.007-0.041-40.51z"  horiz-adv-x="1024" />

    
    <glyph glyph-name="waike" unicode="&#59030;" d="M937.037 333.96c-20.144 49.428-71.131 78.125-123.941 69.571-41.041-6.575-70.252-29.933-88.993-71.236-47.826 34.623-91.464 58.924-136.484 76.052-9.046 3.455-14.448 8.983-19.222 19.735-41.272 92.552-83.025 184.864-124.799 277.186l-4.9 10.805c-26.153 57.845-69.77 91.882-129.636 101.169l-4.397 0.817c-8.899 1.769-23.683 4.68-34.529-8.543-11.035-13.475-3.581-26.248 0.419-33.116 0.859-1.476 1.738-2.932 2.387-4.376 36.183-80.418 72.555-160.752 110.163-243.788l15.202-33.597L330.4 525.42c-70.817 32.121-141.635 64.242-212.515 96.206-1.068 0.482-2.157 1.068-3.246 1.633-6.198 3.277-17.694 9.37-30.069 0.377-13.38-9.716-11.37-23.756-10.156-32.142l0.314-2.345c8.292-62.797 42.34-108.121 101.221-134.704l128.547-57.971a123216.014 123216.014 0 0 0 161.318-72.765l3.56-1.539c6.931-2.952 9.695-4.418 11.161-8.177 20.039-51.249 46.946-100.143 80.094-145.508-49.71-22.342-78.104-68.011-72.534-117.104 6.031-52.893 43.449-93.275 95.358-102.865a102.374 102.374 0 0 1 18.72-1.707c41.335 0.01 82.187 24.3 101.829 62.473 24.08 46.737 13.946 98.824-27.096 139.321l-9.569 9.36c-9.737 9.454-19.809 19.233-28.666 29.441-25.86 29.797-39.827 61.625-42.716 97.316-0.733 9.109 0.879 11.014 1.068 11.203 0.084 0.063 2.01 1.769 10.407 1.12 36.707-2.795 69.1-17.045 99.044-43.565 8.857-7.852 17.401-16.72 25.651-25.295 6.931-7.224 13.883-14.438 21.191-21.285 38.864-36.487 97.243-40.968 141.928-10.857 45.269 30.531 62.439 87.246 41.793 137.919z m-39.304-43.732c-0.272-36.843-29.546-65.551-66.755-65.551h-0.461c-17.861 0.115-34.55 7.098-46.967 19.662-12.438 12.553-19.201 29.284-19.097 47.103 0.105 17.568 7.266 34.205 20.123 46.831 12.668 12.438 29.085 19.254 46.36 19.254h0.754c36.707-0.418 66.336-30.613 66.043-67.299z m-449.905 94.553l-255.232 115.02c-30.09 13.59-52.872 37.555-61.395 63.112l292.713-132.631c3.79-1.717 4.837-2.879 5.57-4.575 5.759-13.255 11.727-26.415 18.344-40.926z m143.184-30.289c3.371-1.539 6.701-3.026 9.988-4.492 5.214-2.335 10.26-4.575 15.118-6.868-7.957 0.921-15.872 1.822-23.787 2.534l-0.963-10.677 0.816 10.227c-0.753 1.266-1.026 5.779-1.172 9.276z m-48.014 5.161c3.56-19.055 4.083-38.707 4.628-59.196 0.147-6.261 0.314-12.574 0.586-18.919-9.465 18.259-17.547 37.283-25.483 55.94-1.696 4.01-3.413 8.009-5.13 12.019 7.726-0.387 18.049 0.503 25.399 10.156z m-44.79 31.252L329.666 762.152c28.373-10.92 48.517-29.985 61.248-57.856 34.131-74.618 67.676-149.477 101.242-224.335l34.006-75.759c-11.747 0.586-20.855-5.507-27.954-13.297z m104.53-262.476c37-0.482 65.75-30.08 65.478-67.383-0.126-17.903-7.161-34.613-19.83-47.03-12.396-12.187-28.813-18.866-46.255-18.866h-0.733c-17.694 0.199-34.404 7.433-47.03 20.385-12.501 12.825-19.243 29.483-18.992 46.904 0.544 36.571 30.279 66.001 66.483 66.001 0.293-0.001 0.586-0.011 0.879-0.011z"  horiz-adv-x="1024" />

    
    <glyph glyph-name="fuchanke" unicode="&#58920;" d="M977.75104-76.24192H390.17984c-37.97504-25.55904-90.19904-44.30848-163.87584-44.30848-99.31264 0-191.54944 91.9808-191.54944 91.9808s219.4688-26.66496 219.4688 162.33984c0 93.96736-104.14592 147.04128-104.14592 386.32448 0 160.19968 162.70848 355.42016 352.22016 355.42016 224.26112 0 325.64736-269.9264 325.64736-367.70816 0-68.34688-30.7712-106.7008-46.24384-135.0912-15.47776-28.3904-24.24832-51.072-31.89248-98.86208-6.19008-38.48192-2.304-73.18528-1.58208-88.43264 67.4304-22.528 153.91232-51.21536 192.58368-63.6416 50.4576-16.21504 71.3728-168.2176 71.3728-168.2176s-5.13536-29.80352-34.432-29.80352zM772.55168 546.80576c-30.45888 12.02176-89.50784 36.77184-130.3296 63.1552-61.50144 39.71072-111.28832 91.04896-111.28832 91.04896s-94.74048-16.60928-133.74976-73.48224c-37.4784-54.61504-64.72192-100.60288-64.72192-142.54592 0-103.16288 130.76992-143.26272 130.76992-171.8528h39.0912c104.17664 0 273.53088 51.32288 273.53088 194.68288-0.00512 12.70784-1.34656 25.76896-3.3024 38.99392z m123.57632-459.89888c-43.9552 10.83904-194.21184 59.46368-250.56256 74.77248-64.7936 17.64864-68.7104 78.34112-64.73728 114.65728-26.20928-4.24448-52.71552-6.48704-78.52544-6.48704-6.89664 0-13.91104 0.59392-20.89984 0.9472a222.65856 222.65856 0 0 0 7.5776-22.55872c30.69952-112.8192-13.4144-235.8272-50.70336-281.216h514.00192s-12.17536 109.08672-56.15104 119.8848z"  horiz-adv-x="1024" />

    
    <glyph glyph-name="baogao-" unicode="&#58959;" d="M959.8-63.8H64.2V831.8h675.4l220.1-215.9v-679.7z m-848.4 47.2h801.3V596L720.4 784.6h-609v-801.2zM936.2 582.4H706.4V808.2h47.2v-178.7h182.6zM460.6 247.8L341.1 367.3l33.3 33.4 86.2-86.2 189 189 33.3-33.3z"  horiz-adv-x="1024" />

    
    <glyph glyph-name="nanke" unicode="&#58886;" d="M750.984508 197.469265c-17.911044 18.934533-13.817091 9.211394-22.516742 23.54023 0 13.817091 4.605697 32.751624 4.605697 32.751624l-50.150924 9.211395s-12.793603 44.521739-1.023489 85.973013c65.503248 36.333833 114.630685 132.029985 135.612194 222.608696 25.075462 106.954523-14.328836 210.326837-90.57871 243.078461-33.263368 48.103948-107.466267 81.367316-193.439281 81.367316C450.590705 896 378.946527 865.295352 343.636182 820.773613c-14.84058-18.934533-14.328836-13.817091-37.357321-35.310345 0 0 13.305347-15.352324 49.127436 0-1.535232-10.746627-9.211394-20.469765-20.469765-25.587206 1.535232 0 3.582209-0.511744 5.117441-0.511744 10.746627 0 20.981509 3.582209 28.657671 9.211394-5.117441-11.770115-12.281859-23.028486-21.493253-32.23988-22.516742-23.54023-54.244878-60.897551-31.728136-89.043478 4.605697-9.211394 0-18.934533-9.211394-28.145927-9.211394-9.211394-81.87906-65.503248-54.244878-84.437781 27.122439-18.934533 27.122439-28.145927 13.817091-41.963019-13.817091-13.817091 0-18.934533 4.605698-23.54023 4.605697-4.605697-31.728136-13.817091 4.605697-41.963018 9.211394-9.211394-36.333833-56.291854 4.605697-79.832084s85.973013-13.817091 90.578711-70.108946c4.605697-56.291854 4.605697-32.751624 17.911044-51.686157 13.817091-18.934533 4.605697-65.503248 45.545227-107.978011 9.211394-9.211394-31.728136-13.817091-58.850574-84.437781-27.122439-70.108946-54.244878-103.372314-45.545228-145.335332H900.925537s-4.605697 178.598701-149.941029 309.605197z"  horiz-adv-x="1024" />

    
    <glyph glyph-name="duihua" unicode="&#58985;" d="M462.7456 735.163733c203.844267 0 369.732267-142.677333 369.732267-318.020266s-165.888-318.020267-369.732267-318.020267c-48.981333 0-96.8704 8.260267-142.2336 24.610133l-18.705067 6.724267-17.339733-9.6256-68.369067-37.819733 16.520534 47.2064 10.513066 30.0032-25.258666 19.2512c-79.325867 60.5184-124.8256 147.217067-124.8256 237.6704 0 175.342933 165.819733 318.020267 369.698133 318.020266m0 43.793067c-228.352 0-413.457067-161.9968-413.457067-361.813333 0-108.817067 55.0912-206.165333 142.0288-272.4864L136.840533-10.922667l168.823467 93.457067c48.469333-17.408 101.410133-27.204267 157.0816-27.204267 228.317867 0 413.4912 161.9968 413.4912 361.813334s-185.173333 361.813333-413.4912 361.813333zM304.64 512h346.589867v-43.758933H304.64zM304.64 351.470933h346.589867v-43.793066H304.64zM876.2368 636.996267m-98.5088 0a98.5088 98.5088 0 1 1 197.0176 0 98.5088 98.5088 0 1 1-197.0176 0Z"  horiz-adv-x="1024" />

    
    <glyph glyph-name="yanke" unicode="&#58887;" d="M960 294.4c0 6.4-6.4 12.8-12.8 19.2-12.8 12.8-25.6 25.6-38.4 32-19.2 12.8-38.4 32-57.6 44.8-12.8 6.4-19.2 12.8-32 19.2 0 0-6.4 0-6.4 6.4-6.4 0-6.4 6.4-12.8 6.4-19.2 12.8-38.4 19.2-64 32-19.2 6.4-32 12.8-51.2 19.2-12.8 6.4-19.2 6.4-32 6.4-6.4 0-19.2 6.4-32 6.4h-6.4c-19.2 12.8-25.6 19.2-38.4 19.2H524.8c-51.2 0-89.6-6.4-121.6-12.8h-6.4c-12.8 0-25.6 0-38.4-6.4-12.8-6.4-32-6.4-38.4-12.8-25.6-6.4-38.4-12.8-57.6-19.2-32-12.8-64-32-96-57.6s-57.6-51.2-89.6-76.8c-6.4-12.8-12.8-25.6-12.8-38.4 0-12.8 6.4-25.6 12.8-32 12.8-12.8 25.6-19.2 32-32 32-32 70.4-57.6 108.8-76.8 19.2-12.8 44.8-25.6 64-32 12.8-6.4 25.6-12.8 44.8-19.2 12.8-6.4 25.6-6.4 38.4-12.8 6.4 0 19.2-6.4 25.6-6.4h12.8c6.4 0 19.2-6.4 25.6-6.4h89.6c38.4 0 76.8 6.4 108.8 12.8h6.4c12.8 0 25.6 6.4 38.4 6.4 12.8 6.4 25.6 6.4 44.8 12.8 19.2 6.4 38.4 12.8 51.2 19.2 38.4 19.2 70.4 38.4 102.4 64 25.6 19.2 51.2 44.8 76.8 70.4 6.4 6.4 12.8 12.8 12.8 25.6v6.4 12.8z m-44.8-12.8s-6.4 0 0 0c-25.6-25.6-51.2-44.8-76.8-64-32-25.6-64-44.8-96-57.6-12.8-6.4-32-12.8-44.8-19.2-12.8-6.4-25.6-6.4-38.4-12.8-12.8 0-19.2-6.4-32-6.4h-6.4c-38.4-6.4-83.2-12.8-128-12.8-12.8 0-32 0-44.8 6.4-6.4 0-12.8 0-25.6 6.4h-6.4-6.4c-6.4 0-12.8 0-25.6 6.4-19.2 0-25.6 0-38.4 6.4-12.8 6.4-32 12.8-38.4 19.2-19.2 12.8-38.4 19.2-64 32-32 19.2-64 44.8-96 70.4-12.8 6.4-25.6 19.2-38.4 25.6 25.6 25.6 57.6 51.2 83.2 70.4 32 25.6 64 44.8 96 57.6 12.8 6.4 25.6 12.8 51.2 19.2 12.8 6.4 25.6 6.4 38.4 12.8 6.4 6.4 12.8 6.4 25.6 6.4h6.4c32 6.4 64 12.8 108.8 12.8h44.8c12.8 0 19.2 0 32-6.4h6.4c19.2 0 25.6-6.4 32-6.4 12.8 0 19.2-6.4 32-6.4 12.8-6.4 32-12.8 44.8-19.2 19.2-6.4 38.4-19.2 57.6-32 0 0 6.4 0 6.4-6.4 6.4-6.4 12.8-6.4 19.2-12.8 6.4-6.4 19.2-6.4 25.6-19.2 19.2-12.8 38.4-32 57.6-44.8 12.8 0 25.6-12.8 38.4-25.6zM633.6 345.6s0-6.4 0 0c-6.4-38.4-32-64-70.4-57.6-25.6 0-44.8 19.2-51.2 44.8-6.4 25.6 12.8 64 57.6 70.4-32 19.2-57.6 19.2-89.6 12.8-44.8-12.8-76.8-38.4-96-83.2-19.2-44.8-12.8-115.2 51.2-160 64-38.4 147.2-25.6 192 44.8 19.2 32 25.6 70.4 12.8 108.8 0 0 0 6.4-6.4 19.2zM198.4 480c6.4-6.4 12.8-12.8 19.2-12.8h12.8c12.8 6.4 12.8 19.2 6.4 32L192 588.8c-6.4 12.8-19.2 12.8-32 6.4-6.4-6.4-12.8-19.2-6.4-25.6l44.8-89.6zM332.8 544c0-12.8 12.8-19.2 19.2-19.2h6.4c12.8 0 19.2 12.8 19.2 25.6l-25.6 102.4c0 12.8-12.8 19.2-25.6 19.2-12.8-6.4-19.2-19.2-19.2-32l25.6-96zM512 544c12.8 0 25.6 12.8 25.6 25.6V684.8c0 12.8-12.8 25.6-25.6 25.6s-25.6-12.8-25.6-25.6v-115.2c6.4-12.8 19.2-25.6 25.6-25.6zM672 531.2s6.4 0 0 0c12.8 0 25.6 6.4 25.6 19.2l25.6 102.4c0 12.8-6.4 25.6-19.2 25.6-12.8 0-25.6-6.4-25.6-19.2l-25.6-102.4c0-12.8 6.4-25.6 19.2-25.6zM800 480h12.8c6.4 0 19.2 6.4 19.2 12.8l44.8 83.2c6.4 12.8 0 25.6-6.4 32-12.8 6.4-25.6 0-32-6.4L793.6 512c-6.4-12.8 0-25.6 6.4-32z"  horiz-adv-x="1024" />

    
    <glyph glyph-name="tizhong" unicode="&#58898;" d="M508.032-117.12A505.152 505.152 0 0 0 2.944 388.096a505.088 505.088 0 0 0 1010.24 0 505.28 505.28 0 0 0-505.152-505.216z m0 978.688a473.536 473.536 0 1 1 0-947.008 473.536 473.536 0 0 1 0 947.008zM823.04 400.64h-38.976c0 0.32 0.192 0.576 0.192 0.896h-21.248c-10.816 0-19.456 8.64-19.456 19.264s8.64 19.264 19.456 19.264h21.248a267.904 267.904 0 0 1-26.88 98.944l-18.048-10.432a19.456 19.456 0 0 0-26.496 7.04 19.264 19.264 0 0 0 7.168 26.368l17.984 10.368a273.664 273.664 0 0 1-71.936 71.424l-10.368-17.92a19.264 19.264 0 0 0-26.432-6.976 19.2 19.2 0 0 0-7.04 26.304l10.432 17.984a268.864 268.864 0 0 1-99.392 26.496v-24a19.328 19.328 0 1 0-38.72 0v24a269.76 269.76 0 0 1-97.28-25.92l10.752-18.624a19.2 19.2 0 0 0-16.768-28.928 19.456 19.456 0 0 0-16.768 9.6l-10.88 18.688c-28.48-19.136-53.12-43.52-72.448-71.616l19.136-10.944a19.2 19.2 0 0 0-9.728-35.904 19.52 19.52 0 0 0-9.664 2.56l-19.328 11.136a264.256 264.256 0 0 1-27.072-99.072h21.44c10.688 0 19.392-8.576 19.392-19.2a19.328 19.328 0 0 0-19.392-19.264h-21.568l0.128-1.536h-38.848a311.168 311.168 0 0 0-0.704 20.48c0 169.728 138.752 307.904 309.312 307.904 170.688 0 309.376-138.176 309.376-307.904a362.88 362.88 0 0 0-0.576-20.48z m-510.336-147.2c5.184 1.984 11.968-1.28 15.232-7.296 3.264-5.952 1.728-12.224-3.456-14.016-5.184-1.984-11.968 1.344-15.296 7.296-3.2 5.952-1.728 12.288 3.52 14.016z m60.16 81.28c7.744 2.816 18.048-2.112 22.912-11.008 4.928-8.96 2.56-18.368-5.184-21.248-7.744-2.752-18.048 2.112-22.912 10.944-4.928 9.024-2.624 18.496 5.184 21.312z m-31.168-76.928c-6.4-2.368-14.912 1.792-19.008 9.152-4.096 7.424-2.176 15.296 4.288 17.6 6.464 2.368 14.976-1.728 19.072-9.088s2.176-15.36-4.352-17.664z m5.888 51.648c7.744 2.944 18.048-2.112 22.976-10.944 4.864-9.088 2.56-18.56-5.248-21.248-7.744-2.88-17.984 2.112-22.912 10.944-4.864 9.024-2.496 18.432 5.184 21.248z m55.04 11.904c-5.312 11.264-2.816 23.232 5.504 26.816 8.32 3.52 19.392-2.752 24.64-14.08 5.248-11.2 2.688-23.168-5.568-26.752-8.384-3.648-19.392 2.688-24.576 14.016z m10.688-28.096c31.424-0.768 37.888-37.824 37.888-37.824 0.32-10.432 3.712-27.84-6.272-44.16-10.048-16.384-26.816-82.752 12.608-113.664 39.424-30.848 21.248-64.384 12.608-75.712-13.824-18.304-70.08-14.848-75.776 25.216-12.032 85.824-34.368 88.704-50.496 113.6-3.2 5.056-16.512 43.904-6.336 63.104 15.296 28.992 44.352 70.336 75.776 69.44z m100.416 165.952c6.848 0 13.312-1.92 18.88-5.12l105.28 60.416a19.2 19.2 0 1 0 19.264-33.344l-104.832-60.224v-0.128c0-21.248-17.28-38.4-38.592-38.4a38.528 38.528 0 0 0-38.656 38.4c0 21.184 17.28 38.4 38.656 38.4z m57.088-153.408c-8.192 3.648-10.688 15.616-5.504 26.88 5.248 11.264 16.192 17.472 24.448 13.952 8.256-3.52 10.688-15.552 5.504-26.816-5.248-11.264-16.128-17.472-24.448-14.016z m-30.016-209.088c39.104 30.848 22.528 97.152 12.48 113.408-9.856 16.384-6.656 33.6-6.272 44.032 0 0 6.464 36.928 37.504 37.824 31.104 0.768 60.096-40.448 75.2-69.312 10.048-19.2-3.072-58.048-6.272-62.848-16.064-25.088-38.144-27.904-49.984-113.472-5.696-40.064-61.504-43.52-75.136-25.216-8.576 11.328-26.624 44.8 12.48 75.584z m129.408 186.624c6.528-2.304 8.384-10.24 4.288-17.6-4.032-7.296-12.544-11.52-18.88-9.152-6.528 2.304-8.384 10.24-4.288 17.6s12.48 11.52 18.88 9.152z m-63.168 17.664c-7.616 2.944-9.856 12.352-4.992 21.248 4.8 8.896 14.976 13.824 22.656 10.944 7.744-2.752 10.048-12.224 5.248-21.12-4.864-8.896-15.168-13.824-22.912-11.072z m42.752 6.976c7.616-2.752 9.92-12.224 5.12-21.056-4.864-9.024-15.04-13.888-22.656-11.2-7.744 2.944-10.048 12.48-5.184 21.312 4.8 8.768 15.04 13.824 22.72 10.944z m34.56-55.808c5.248-1.728 6.656-8.064 3.456-14.016s-9.984-9.216-15.104-7.296c-5.12 1.92-6.656 8.192-3.392 14.144 3.2 5.952 9.92 9.216 15.04 7.168z"  horiz-adv-x="1024" />

    
    <glyph glyph-name="xinlijiankangke" unicode="&#58934;" d="M511.89248-31.7184c-6.73792 0-11.12576 2.19136-16.68096 4.96128-118.18496 68.992-218.30656 148.85376-289.67424 231.04l-0.37376 0.4352-0.256 0.24576c-4.58752 4.58752-9.22112 9.98912-14.12608 15.71328-4.46464 5.2224-9.50784 11.1104-14.59712 16.29184-3.25632 4.864-4.48 11.21792-3.4304 16.57344 0.86528 4.39808 3.06176 7.69024 6.52288 9.77408l1.40288 0.83968 1.152 1.152c3.00032 3.00032 6.49216 4.51584 10.37824 4.51584 4.66432 0 9.2416-2.26816 12.24192-6.07232 7.41376-10.97216 18.07872-21.64224 27.48928-31.04768 92.94336-105.1904 206.78144-177.60768 261.48864-212.41344 4.18816-2.66752 7.94624-5.05344 11.29984-7.20896l6.76352-4.352 6.97856 3.98848c7.35232 4.19328 181.33504 104.47872 300.28288 250.2912 71.02976 87.92576 105.2928 176.3072 101.84704 262.66112-3.51232 112.10752-89.07776 209.59232-199.04512 226.76992a257.23904 257.23904 0 0 1-48.1536 4.59264c-54.9632 0-106.77248-18.43712-149.82656-53.31968-4.18816-3.07712-8.76544-4.66432-13.33248-4.66432-4.56192 0-9.1392 1.5872-13.23008 4.58752-43.15136 34.95936-95.95392 53.39648-152.79104 53.39648a263.2192 263.2192 0 0 1-49.01888-4.66432C187.53536 730.8288 103.17824 628.1216 103.17824 518.54336c0-31.06816 5.69856-67.72224 16.94208-108.94336l6.01088-22.03648 105.12896 105.12896c3.93216 3.92704 8.66304 6.00064 13.696 6.00064s9.76384-2.0736 13.696-6.00064l118.12352-118.12352 151.08096 151.07584c3.93728 3.92704 8.66816 6.00064 13.69088 6.00064 5.02784 0 9.76384-2.0736 13.70112-6.00064 3.92704-3.93728 6.00064-8.67328 6.00064-13.696s-2.0736-9.75872-6.00064-13.69088l-164.77696-164.77696c-3.93216-3.93216-8.66816-6.00576-13.696-6.00576s-9.76384 2.0736-13.696 6.00576l-114.5344 121.71776-111.8208-111.82592c-3.59424-3.584-9.48736-5.58592-17.52064-5.9392l-0.55808-0.0256-0.52224 0.20992c-6.30784 2.57024-11.48416 6.49728-12.84608 8.80128-27.17184 54.3488-41.49248 113.81248-41.49248 172.12928 3.16416 135.76192 96.32256 248.27904 226.56 273.69472a285.79328 285.79328 0 0 0 58.11712 6.0416c54.90688 0 108.91776-16.24576 156.2112-46.98624l7.22432-4.69504 7.22432 4.69504c48.74752 31.68256 104.79616 48.42496 162.08896 48.42496 16.49664 0 33.05472-1.42336 49.20832-4.23424 128.83456-25.14432 223.232-133.86752 229.59616-264.40192 3.2512-97.45408-34.52928-194.15552-112.28672-287.4624-102.74816-129.94048-251.88864-224.41984-308.03456-259.98848-3.97824-2.5088-7.95136-5.03808-11.904-7.57248l-1.18784-0.76288-0.9984-1.00864c-4.56704-4.5568-7.89504-6.01088-13.71136-6.01088z"  horiz-adv-x="1024" />

    
    <glyph glyph-name="552dc065f0478" unicode="&#58880;" d="M822.3957520507813-6.42799013671879L210.93182421875002-6.42799013671879c-32.377148437500004 0-58.71668994140625 26.340441503906252-58.71668994140625 58.71668994140625L152.21513427734374 266.13041542968756c0 8.94083818359375 7.248186035156249 16.18902421875 16.18902421875 16.18902421875s16.18902421875-7.248186035156249 16.18902421875-16.18902421875l0-213.84171562499998c0-14.52245361328125 11.815289648437501-26.338642382812502 26.338642382812502-26.338642382812502l611.4639278320312 0c14.523352734374999 0 26.338642382812502 11.816188769531252 26.338642382812502 26.338642382812502L848.7343944335937 266.13041542968756c0 8.94083818359375 7.248186035156249 16.18902421875 16.18902421875 16.18902421875s16.18902421875-7.248186035156249 16.18902421875-16.18902421875l0-213.84171562499998C881.1124419921875 19.912451367187487 854.7720004882813-6.42799013671879 822.3957520507813-6.42799013671879zM864.9234177734374 482.09379228515627c-8.94083818359375 0-16.18902421875 7.248186035156249-16.18902421875 16.18902421875l0 228.88581503906252c0 14.52245361328125-11.815289648437501 26.338642382812502-26.338642382812502 26.338642382812502L210.93182421875002 753.5072739257812c-14.523352734374999 0-26.338642382812502-11.815289648437501-26.338642382812502-26.338642382812502l0-228.88581503906252c0-8.94083818359375-7.248186035156249-16.18902421875-16.18902421875-16.18902421875s-16.18902421875 7.248186035156249-16.18902421875 16.18902421875l0 228.88581503906252c0 32.376249316406245 26.340441503906252 58.71668994140625 58.71668994140625 58.71668994140625l611.4639278320312 0c32.376249316406245 0 58.71668994140625-26.340441503906252 58.71668994140625-58.71668994140625l0-228.88581503906252C881.1124419921875 489.34197832031253 873.8651550781249 482.09379228515627 864.9234177734374 482.09379228515627zM906.7423642578125 371.15580820312505L127.07987626953121 371.15580820312505c-8.94083818359375 0-16.18902421875 7.248186035156249-16.18902421875 16.18902421875s7.248186035156249 16.18902421875 16.18902421875 16.18902421875l779.6615897460937 0c8.94083818359375 0 16.18902421875-7.248186035156249 16.18902421875-16.18902421875S915.6832024414064 371.15580820312505 906.7423642578125 371.15580820312505z"  horiz-adv-x="1024" />

    
    <glyph glyph-name="pinggu" unicode="&#58933;" d="M867.669333 25.258667c0-3.072-2.389333-5.461333-5.461333-5.461334H696.32v-44.373333h165.888c27.306667 0 49.493333 22.186667 49.493333 49.493333v165.888h-44.373333v-165.546666zM138.24 25.258667V744.106667c0 3.072 2.389333 5.461333 5.461333 5.461333h718.848c3.072 0 5.461333-2.389333 5.461334-5.461333v-165.888h44.373333V744.106667c0 27.306667-22.186667 49.493333-49.493333 49.493333H143.36c-27.306667 0-49.493333-22.186667-49.493333-49.493333v-718.848c0-27.306667 22.186667-49.493333 49.493333-49.493334h165.888v44.373334H143.36c-2.730667-0.341333-5.12 2.389333-5.12 5.12zM670.72 604.16c8.533333 8.874667 8.533333 22.869333-0.341333 31.402667-8.533333 8.533333-22.869333 8.533333-31.402667-0.341334l-191.829333-194.56-94.208 93.184-128.682667-133.461333c-8.533333-8.874667-8.192-22.869333 0.682667-31.402667 4.437333-4.096 9.898667-6.144 15.36-6.144 5.802667 0 11.605333 2.389333 16.042666 6.826667l97.621334 101.376 93.866666-92.842667 222.890667 225.962667zM895.317333 444.074667c-46.421333 46.421333-121.856 46.421333-167.936 0l-285.013333-285.013334-17.066667-185.002666 185.002667 17.066666 285.013333 285.013334c46.421333 46.421333 46.421333 121.514667 0 167.936zM590.506667 33.450667l-116.053334-10.581334 10.581334 116.053334 216.746666 216.746666 105.472-105.472-216.746666-216.746666z m273.749333 273.749333l-25.941333-25.941333-105.472 105.472 25.941333 25.941333c29.013333 29.013333 76.458667 29.013333 105.472 0s29.013333-76.117333 0-105.472z"  horiz-adv-x="1024" />

    
    <glyph glyph-name="shuimian" unicode="&#59486;" d="M850.39104 264.704c-40.7552-24.04352-84.70528-35.71712-134.3488-35.71712-101.80608 0-197.55008 38.2976-262.67648 105.0624-60.45696 61.99296-91.21792 142.848-88.94464 233.82016 1.31072 52.14208 11.9808 100.98688 31.70304 145.12128a36.00384 36.00384 0 0 1-8.21248 41.30816 36.352 36.352 0 0 1-42.0864 6.0416c-140.22656-71.90528-227.328-214.17984-227.328-371.3024 0-227.6352 183.68512-405.95456 418.18112-405.95456 150.56896 0 293.7856 91.72992 364.83072 233.69728 7.2704 14.5408 4.096 31.8464-7.90528 43.04896a36.12672 36.12672 0 0 1-43.2128 4.87424zM536.71936 24.02304c-211.53792 0-377.22112 160.31744-377.22112 364.99456 0 137.64608 74.15808 262.656 194.33472 329.15456-18.80064-46.01856-28.99968-96.17408-30.3104-149.31968-2.56-102.23616 32.21504-193.3312 100.5568-263.39328 72.78592-74.6496 179.2-117.43232 291.98336-117.43232 51.9168 0 98.54976 11.18208 142.09024 34.0992-66.19136-120.81152-190.85312-198.10304-321.4336-198.10304z m77.66016 486.83008h45.30176l-53.39136-69.44768a20.52096 20.52096 0 0 1 16.24064-32.9728H716.8a20.48 20.48 0 1 1 0 40.96h-52.67456l53.39136 69.44768a20.52096 20.52096 0 0 1-16.24064 32.9728H614.4a20.48 20.48 0 0 1-0.02048-40.96z m163.84 184.32h64.12288l-71.76192-89.6a20.50048 20.50048 0 0 1 15.9744-33.28h94.06464a20.48 20.48 0 1 1 0 40.96h-51.42528l71.76192 89.6a20.48 20.48 0 0 1-15.9744 33.28h-106.76224a20.48 20.48 0 1 1 0-40.96z"  horiz-adv-x="1024" />

    
    <glyph glyph-name="mark" unicode="&#58890;" d="M64.044642 833.714422l81.042781 0 0-899.15869-81.042781 0 0 899.15869ZM563.557236 774.691143c-224.74874 132.802632-386.147664 0-386.147664 0l0-514.667759c0 0 161.398924 132.802632 386.147664 0 193.07332-114.086361 396.940474 0 396.940474 0L960.497711 774.691143C960.497711 774.691143 756.630556 660.604782 563.557236 774.691143z"  horiz-adv-x="1024" />

    
    <glyph glyph-name="xinlixue" unicode="&#59028;" d="M749.568 855.04c-115.2 0-192.512-65.024-237.568-120.832-0.512-0.512-1.024-0.512-1.536 0C464.896 790.528 388.096 855.04 274.432 855.04 125.952 855.04 5.12 734.208 5.12 585.728c0-71.68 28.16-139.264 78.336-189.952 16.384-19.968 100.864-102.912 152.064-152.576-10.24-11.264-16.384-26.112-16.384-41.984 0-16.384 6.656-32.256 17.92-44.032l40.96-40.96c11.776-11.776 27.648-17.92 44.032-17.92 16.384 0 32.256 6.656 44.032 17.92l40.96 40.96c11.776 11.776 17.92 27.136 17.92 44.032s-6.656 32.256-17.92 44.032l-40.96 40.96c-11.264 11.264-27.136 17.408-43.52 17.408h-0.512c-15.36 0-30.72-5.632-41.472-15.36-68.608 66.56-139.264 137.216-146.432 145.92-1.024 1.536-2.56 3.584-4.096 5.12l-1.024 1.024c-38.912 38.912-60.416 90.112-60.416 145.408 0 113.152 92.16 205.312 205.312 205.312 102.4 0 169.472-68.608 207.36-125.952 2.56-5.632 6.656-10.24 11.776-13.312 7.168-4.608 15.872-6.144 24.064-4.608 8.192 2.048 15.36 6.656 19.968 13.824 38.4 59.392 105.984 130.048 211.456 130.048 113.152 0 205.312-92.16 205.312-205.312 0-54.784-21.504-106.496-59.904-144.896-1.536-1.536-3.072-3.584-4.096-5.632-14.336-17.408-185.856-187.392-310.784-310.272-14.848 7.68-31.744 11.776-49.152 11.776-60.416 0-109.568-49.152-109.568-109.568s49.152-109.568 109.568-109.568c60.416 0 109.568 49.152 109.568 109.568 0 19.456-5.12 37.376-13.824 53.248 139.776 137.216 302.08 298.496 316.416 317.44 49.152 50.688 76.288 117.248 76.288 187.904 0.512 148.48-120.32 269.312-268.8 269.312zM322.56 251.904c2.56 0 4.608-1.024 6.656-2.56l40.96-40.96c3.584-3.584 3.584-9.728 0-13.312l-40.96-40.96c-3.584-3.584-9.728-3.584-13.312 0l-40.96 40.96c-3.584 3.584-3.584 9.728 0 13.312l40.96 40.96c1.536 1.536 4.096 2.56 6.656 2.56z m208.384-281.088c-31.232 0-56.832 25.6-56.832 56.832s25.6 56.832 56.832 56.832 56.832-25.6 56.832-56.832-25.6-56.832-56.832-56.832z"  horiz-adv-x="1024" />

    
    <glyph glyph-name="zixun" unicode="&#58902;" d="M165.888 168.96c-38.912 20.48-63.488 63.488-63.488 104.448V705.536c0 32.768 12.288 57.344 34.816 71.68 26.624 14.336 61.44 12.288 96.256-10.24L522.24 588.8c6.144-4.096 10.24-10.24 10.24-16.384v-442.368c0-12.288-8.192-20.48-20.48-20.48s-20.48 8.192-20.48 20.48v430.08L212.992 732.16c-20.48 12.288-40.96 16.384-55.296 10.24-12.288-8.192-14.336-26.624-14.336-36.864V271.36c0-26.624 16.384-51.2 43.008-65.536L495.616 35.84c10.24-6.144 22.528-6.144 32.768 0l315.392 169.984c24.576 12.288 36.864 36.864 36.864 65.536V705.536c0 18.432-6.144 30.72-16.384 36.864-12.288 8.192-32.768 4.096-53.248-8.192L632.832 625.664c-10.24-6.144-22.528-2.048-28.672 6.144-6.144 10.24-2.048 22.528 6.144 28.672L788.48 769.024c34.816 20.48 69.632 24.576 96.256 8.192 22.528-14.336 36.864-40.96 36.864-73.728v-434.176c0-43.008-22.528-83.968-59.392-104.448l-333.824-184.32c-10.24-6.144-22.528-6.144-32.768 0L165.888 168.96z"  horiz-adv-x="1024" />

    
    <glyph glyph-name="kouqiang" unicode="&#58888;" d="M266.24-37.376c17.408-19.968 51.712-62.976 103.424-62.976 54.272 0 86.016 46.08 86.016 86.016 0 46.08 0 172.032 57.344 172.032s57.344-126.464 57.344-172.032c0-39.936 31.744-86.016 86.016-86.016 51.712 0 89.088 43.008 103.424 62.976l3.072 5.632c152.064 183.808 235.008 393.216 235.008 590.848v43.008c3.072 148.992-120.32 272.384-269.824 272.384-43.008 0-77.312 0-143.36-31.744l-8.704-5.632c-19.968-11.264-39.936-19.968-62.976-19.968-23.04 0-43.008 11.264-66.048 23.04l-5.632 3.072C377.856 875.008 340.992 875.008 300.544 875.008 151.552 875.008 28.16 751.616 28.16 602.112v-43.008c0-198.144 83.456-410.112 235.008-590.848l3.072-5.632zM82.432 602.112c0 117.76 97.792 215.04 215.04 215.04 39.936 0 66.048 0 117.76-25.6l5.632-3.072h-48.64c-17.408 0-28.672-11.264-28.672-28.672 0-17.408 11.264-28.672 28.672-28.672 86.016 0 148.992 0 241.152 60.416 51.712 25.6 77.312 25.6 117.76 25.6 117.76 0 215.04-97.792 215.04-215.04v-43.008h-3.072c0-186.368-80.384-381.44-223.744-556.544l-3.072-5.632c-14.336-17.408-34.304-43.008-60.416-43.008-19.968 0-28.672 17.408-28.672 28.672 0 62.976 0 229.376-114.688 229.376s-114.688-166.4-114.688-229.376c0-11.264-8.704-28.672-28.672-28.672-25.6 0-46.08 25.6-60.416 43.008l-3.072 5.632C162.304 174.592 81.92 372.736 81.92 559.104v43.008zM688.128 696.832c77.312 0 140.8-62.976 140.8-140.8V527.36c0-17.408 11.264-28.672 28.672-28.672 17.408 0 28.672 11.264 28.672 28.672v28.672c0 109.056-89.088 198.144-198.144 198.144-17.408 0-28.672-11.264-28.672-28.672 0-16.896 11.264-28.672 28.672-28.672z"  horiz-adv-x="1024" />

    
    <glyph glyph-name="dianzan_leave" unicode="&#58881;" d="M782.036 448.35h-172.29c66.761 246.563-45.998 259.156-45.998 259.156-47.791 0-37.884-37.791-41.498-44.092 0-120.58-128.074-215.065-128.074-215.065v-341.946c0-33.754 45.998-45.91 64.042-45.91h258.866c24.363 0 44.202 63.892 44.202 63.892 64.043 217.77 64.043 282.564 64.043 282.564 0.001 44.993-43.293 41.398-43.293 41.398v0 0zM782.036 448.35zM323.472 448.237h-103.167c-21.306 0-21.635-20.927-21.635-20.927l21.306-344.864c0-21.95 21.987-21.95 21.987-21.95h89.291c18.602 0 18.437 14.52 18.437 14.52v347.069c0 26.486-26.221 26.151-26.221 26.151v0 0zM323.472 448.237z"  horiz-adv-x="1024" />

    
    <glyph glyph-name="gaoya" unicode="&#58922;" d="M51.2 678.4c-1.28 2.56-1.28 5.12-1.28 7.68V783.36v3.84 12.8c0 5.12 1.28 8.96 2.56 12.8 1.28 3.84 3.84 6.4 6.4 10.24 2.56 2.56 6.4 5.12 10.24 6.4 5.12 1.28 8.96 2.56 14.08 2.56h112.64c6.4 0 11.52-1.28 16.64-3.84 5.12-2.56 8.96-6.4 11.52-11.52 2.56-5.12 5.12-10.24 5.12-16.64 0-8.96-3.84-16.64-10.24-23.04s-14.08-10.24-23.04-10.24H113.92v-80.64c0-2.56 0-5.12-1.28-7.68 1.28-2.56 1.28-5.12 1.28-7.68 0-62.72 21.76-115.2 66.56-160s98.56-66.56 161.28-66.56c62.72 0 116.48 21.76 160 66.56 43.52 44.8 66.56 97.28 66.56 160l1.28 7.68c-1.28 2.56-1.28 5.12-1.28 7.68v80.64h-97.28c-3.84 0-7.68 0-10.24 1.28-2.56 1.28-6.4 2.56-8.96 5.12-2.56 1.28-5.12 3.84-6.4 6.4-2.56 2.56-3.84 5.12-5.12 8.96-1.28 3.84-1.28 6.4-1.28 10.24 0 8.96 2.56 16.64 8.96 23.04 6.4 7.68 14.08 10.24 23.04 10.24H601.6c5.12 0 8.96-1.28 12.8-2.56 3.84-1.28 7.68-3.84 10.24-6.4 2.56-3.84 5.12-6.4 6.4-10.24 1.28-3.84 2.56-7.68 2.56-12.8 0-2.56 0-5.12-1.28-7.68 1.28-2.56 1.28-5.12 1.28-7.68v-98.56c0-2.56 0-5.12-1.28-7.68 1.28-2.56 1.28-5.12 1.28-7.68 0-29.44-3.84-58.88-12.8-85.76-8.96-28.16-20.48-53.76-35.84-76.8-15.36-23.04-34.56-43.52-56.32-61.44-21.76-17.92-44.8-32-71.68-43.52-25.6-11.52-53.76-19.2-83.2-21.76v-148.48c0-2.56 0-5.12-1.28-7.68v-7.68c0-17.92 1.28-34.56 5.12-52.48 3.84-16.64 8.96-33.28 16.64-47.36 7.68-15.36 16.64-29.44 26.88-42.24s21.76-25.6 35.84-35.84c12.8-10.24 26.88-19.2 42.24-26.88 15.36-7.68 30.72-12.8 47.36-16.64 16.64-3.84 34.56-5.12 52.48-5.12 61.44 0 112.64 20.48 157.44 62.72 43.52 42.24 67.84 93.44 69.12 154.88-26.88 7.68-48.64 23.04-66.56 44.8-17.92 21.76-25.6 47.36-25.6 75.52 0 34.56 12.8 64 37.12 88.32 24.32 24.32 53.76 37.12 88.32 37.12s64-12.8 88.32-37.12c24.32-24.32 37.12-53.76 37.12-88.32 0-14.08-2.56-28.16-6.4-40.96-5.12-12.8-11.52-24.32-19.2-35.84-8.96-10.24-17.92-19.2-29.44-26.88-11.52-7.68-23.04-12.8-37.12-16.64-2.56-83.2-34.56-153.6-98.56-209.92-56.32-48.64-120.32-72.96-193.28-72.96-39.68 0-76.8 7.68-113.92 23.04-35.84 15.36-67.84 35.84-93.44 62.72-26.88 25.6-47.36 57.6-62.72 93.44C314.88 140.8 307.2 179.2 307.2 218.88c0 2.56 0 5.12 1.28 7.68-1.28 2.56-1.28 5.12-1.28 7.68V380.16c-81.92 8.96-148.48 44.8-198.4 110.08-39.68 53.76-60.16 112.64-61.44 179.2v3.84c2.56 1.28 3.84 2.56 3.84 5.12z m0 0M972.8 674.56l-119.04 116.48-116.48-119.04 24.32-23.04 76.8 79.36v-238.08h33.28V727.04l78.08-75.52z"  horiz-adv-x="1024" />

    
    <glyph glyph-name="fuke" unicode="&#58892;" d="M514.864 171.182c-31.559 0-57.15-8.585-57.15-19.201 0-10.597 25.594-19.19 57.15-19.19 31.561 0 57.143 8.592 57.143 19.19 0 10.616-25.584 19.201-57.143 19.201z m314.863 589.095C688.537 914.91 392.723 905.943 269.472 809.577-19.622 592.199-12.902 135.03 83.461 14.01c201.697-242.02 345.118-56.02 345.118-56.02 87.403-51.543 159.112-11.21 201.697 4.477 98.607-197.21 282.368 44.823 324.942 152.39 91.885 291.332 15.688 490.792-125.49 645.42zM88.301 364.355l78.08-5.226s-9.777-227.416 198.643-390.092C282.403-146.515 3.847 35.522 88.3 364.355z m528.53-345.856c-80.678-40.346-150.15-53.793-235.308 11.2-85.164 64.989-164.203 202.876-174.627 338.25 0 0 286.18-80.796 492.35 145.548 11.207-26.897 29.636-89.38 112.554-154.367 0-87.399-20.168-224.1-194.97-340.631z m84.212-74.619c-20.169-6.732-10.263 65.65 18.87 92.547C749.05 63.31 864.56 159.508 853.78 383.577c-2.18 45.325-108.048 73.585-125.783 194.608-33.623-11.21-234.418-212.33-449.566-167.507 0 0 198.033 89.691 226.348 159.105 4.753 28.168-26.55 38.95-91.878-15.685C306.146 464.82 193.192 410.205 90.099 423.652c0 0 91.642 416.88 434.849 404.302 216.558-0.272 322.284-94.002 409.693-345.004 47.052-170.313-37.737-542.664-233.598-539.07z"  horiz-adv-x="1024" />

    
    <glyph glyph-name="lingdang" unicode="&#58883;" d="M803.67 210.26099999999997V484.727c0 142.831-103.373 261.308-239.275 285.406v21.794c0 18.842-15.292 34.134-34.117 34.134h-34.133c-18.859 0-34.133-15.292-34.133-34.134v-21.896C326.382 745.66 223.42 627.337 223.42 484.727v-274.466L103.612 113.28999999999996v-55.33h819.183v55.33L803.669 210.26z m84.991-118.17H137.745v4.899l107.128 86.733 12.663 10.24V484.727c0 141.159 114.842 256 256 256 141.124 0 255.983-114.841 255.983-256v-290.696l12.561-10.24 106.564-86.733v-4.966zM513.178-61.23400000000004c47.155 0 85.418 38.16 85.418 85.333H427.81c0.034-47.172 38.28-85.333 85.368-85.333z"  horiz-adv-x="1024" />

    
    <glyph glyph-name="xietang" unicode="&#59057;" d="M783 280.4c0 90.6-63.9 219-189.9 381.6C500.6 781.4 406.8 876.5 405.9 877.5c-3.8 3.8-9 6-14.3 6s-10.6-2.2-14.3-6c-0.9-0.9-94.8-96.1-187.3-215.5C63.9 499.4 0 371 0 280.4c0-53.4 10.3-105.2 30.7-154 19.7-47.1 47.9-89.5 83.8-125.8 35.9-36.4 77.8-64.9 124.4-84.9 48.3-20.7 99.6-31.1 152.5-31.1S495.7-105 544-84.3c46.6 20 88.5 48.5 124.4 84.9 35.9 36.3 64.1 78.7 83.8 125.8 20.5 48.7 30.8 100.6 30.8 154zM391.5-75.1c-193.6 0-351.2 159.5-351.2 355.5C40.3 360.7 103 484 221.5 637c69.8 90.2 140.5 166.3 170 197.3 29.5-30.9 99.9-106.9 169.7-197 118.7-153.2 181.4-276.6 181.4-356.9 0.1-196.1-157.4-355.5-351.1-355.5zM865.5 582.5c-77 99.3-155 178.5-155.8 179.3-3.8 3.8-9 6-14.3 6-5.4 0-10.6-2.2-14.3-6-0.9-0.9-22.4-22.7-54.2-58.1-7.4-8.3-6.8-21 1.5-28.5s21-6.8 28.5 1.5c15.9 17.6 29.2 32 38.6 41.8 25.8-27.2 82.5-88.7 138.5-161.1 98-126.5 149.8-228.2 149.8-294.1 0-144.1-101.8-265.2-242.1-288.1-11-1.8-18.5-12.2-16.7-23.2 1.6-9.9 10.2-16.9 19.9-16.9 1.1 0 2.2 0.1 3.3 0.3 76.2 12.4 146.1 52.1 196.7 111.6 51.1 60.1 79.2 137 79.2 216.3-0.1 76.2-53.4 183.6-158.6 319.2zM544.3 286h-0.1l-133.6-0.9-0.9 133.6c-0.1 11.1-9.1 20-20.2 20h-0.1c-11.1-0.1-20.1-9.2-20-20.3l0.9-133.6-133.8-0.8c-11.1-0.1-20.1-9.2-20-20.3 0.1-11.1 9.1-20 20.2-20h0.1l133.6 0.9 0.9-133.6c0.1-11.1 9.1-20 20.2-20h0.1c11.1 0.1 20.1 9.2 20 20.3l-0.9 133.6 133.6 0.9c11.1 0.1 20.1 9.2 20 20.3 0.1 11-8.9 19.9-20 19.9z"  horiz-adv-x="1024" />

    
    <glyph glyph-name="jiankang" unicode="&#58909;" d="M742.4 816c-92.8 0-176-44.8-230.4-118.4-51.2 73.6-137.6 118.4-230.4 118.4-156.8 0-281.6-128-281.6-281.6 0-92.8 44.8-160 83.2-211.2C195.2 166.4 470.4-32 483.2-38.4c9.6-6.4 19.2-9.6 32-9.6 9.6 0 22.4 3.2 32 9.6 12.8 9.6 288 204.8 396.8 361.6 38.4 54.4 83.2 118.4 83.2 211.2 0 156.8-128 281.6-284.8 281.6zM899.2 352c-105.6-150.4-384-348.8-384-348.8S233.6 201.6 128 352c-38.4 54.4-73.6 108.8-73.6 182.4 0 128 102.4 230.4 230.4 230.4 92.8 0 172.8-57.6 208-137.6 3.2-9.6 9.6-16 19.2-16s16 6.4 19.2 16c35.2 80 115.2 137.6 208 137.6 128 0 230.4-102.4 230.4-230.4 3.2-73.6-32-124.8-70.4-182.4zM876.8 412.8H771.2c-6.4 0-12.8-3.2-16-9.6l-25.6-73.6-54.4 163.2c-3.2 6.4-9.6 9.6-16 9.6s-12.8-3.2-16-9.6l-51.2-134.4-19.2 48c-3.2 6.4-9.6 9.6-16 9.6h-96c-6.4 0-12.8-3.2-16-9.6l-25.6-76.8-54.4 163.2c-3.2 6.4-9.6 9.6-16 9.6s-12.8-3.2-16-9.6l-51.2-134.4-19.2 48c-3.2 6.4-9.6 9.6-16 9.6h-96c-9.6 0-16-6.4-16-16s6.4-16 16-16h86.4l32-76.8c3.2-6.4 9.6-9.6 16-9.6s12.8 3.2 16 9.6l48 128 54.4-163.2c3.2-6.4 9.6-9.6 16-9.6s12.8 3.2 16 9.6l38.4 108.8H547.2l32-76.8c3.2-6.4 9.6-9.6 16-9.6s12.8 3.2 16 9.6l48 128 54.4-163.2c3.2-6.4 9.6-9.6 16-9.6s12.8 3.2 16 9.6l38.4 105.6h96c9.6 0 16 6.4 16 16 0 16-9.6 22.4-19.2 22.4z"  horiz-adv-x="1027" />

    
    <glyph glyph-name="fuke1" unicode="&#59173;" d="M884.613719 604.184929c-1.520883 4.093804-2.550051 8.690758-4.082369 12.784562-14.86577 49.057042-65.409389 94.546299-82.276321 109.366329-23.510788 20.949301-64.391656 25.043105-88.417028 25.546254l-0.514584 0.514585c-5.614687 5.111538-14.86577 13.287712-29.125475 13.287711a30.749274 30.749274 0 0 1-15.323178-3.57922 64.35735 64.35735 0 0 0-6.643856 9.708492c-2.046902 3.076071-3.57922 6.140707-5.626123 9.148166-9.708492 16.855496-17.884665 30.154643-52.121677 64.391656C553.461533 892.42078 500.859576 896 441.030568 896c-72.04181 0-122.65404-21.967034-180.40184-56.718631-54.683164-33.219279-64.90624-70.532363-71.550096-95.060884-1.532318-5.111538-2.561487-9.708492-4.093805-12.773127-11.240809-26.072274-11.743959-62.356189-8.176173-80.240854 0.514584-2.550051-4.574083-10.726225-9.708492-17.370081-1.532318-2.046902-3.064636-4.574083-4.574083-7.15844-9.148166-13.802296-19.931567-25.043105-30.669228-35.769331-9.148166-9.205342-13.790861-20.446152-12.773127-32.201545a39.8517 39.8517 0 0 1 15.334614-27.593157c3.064636-2.046902 5.626122-4.093804 8.176174-5.626122-4.093804-9.708492-5.626122-24.528521 1.017733-36.283915a38.2279 38.2279 0 0 1-2.069773-12.224237c0-6.643856 0-20.446152 11.755394-30.154644a64.688971 64.688971 0 0 0-1.520882-10.73766c-4.574083-20.949301 2.035467-43.945504 16.352347-58.765533 15.323179-15.334614 37.816233-13.802296 53.139411-13.287712 2.561487 0 5.111538 0.503149 7.15844 0.503149 11.240809 0 34.248448-3.064636 44.460089-6.129271 3.57922-5.626122 10.223076-23.510788 12.773127-29.640059 2.561487-6.643856 5.111538-13.802296 7.673025-19.439854l3.064635-6.63242c7.661589-16.866932 16.352347-35.780766 25.55769-49.571627 7.661589-11.252245 13.790861-27.604592 14.86577-33.733863-3.57922-11.240809-30.154643-60.309287-64.90624-114.981016q-18.650824-29.571448-37.816233-58.776969C222.297911 27.724662 213.104004 13.419217 204.916395 0.131505c-2.550051-4.093804-7.147005-14.31688 0.514584-28.119176 18.902399-32.704695 127.765578-98.114084 294.879707-98.114084 50.086211 0 94.031715 3.57922 130.830214 11.240809 31.172377 0 65.923974 15.837763 102.207889 63.877071C751.29063 146.799482 596.915323 333.845178 596.915323 333.845178c-3.076071 13.287712-33.733863 74.614732-34.248448 86.370126a68.085228 68.085228 0 0 1-0.514584 10.726225c1.543753 1.532318 6.643856 5.111538 20.446151 12.269978 7.661589 4.082369 15.334614 7.661589 20.960737 12.269978 14.86577 12.258543 34.751597 30.143208 53.653995 60.812436 20.446152 33.722428 28.107741 60.297851 25.043106 86.370125-1.017734 9.708492-2.046902 18.39925-2.550052 25.03167a25.31755 25.31755 0 0 1 19.920132 5.111538c6.140707-14.305445 9.708492-28.58802 9.205343-34.237012-0.514584-3.064636-0.514584-6.129271-1.017734-9.708492-2.046902-20.960736-5.111538-49.571626-19.943002-83.820074-16.340912-37.816233-14.86577-184.48421 19.439853-260.631259 35.254746-79.72627 59.280118-140.538705 67.467727-217.714924 45.992406 80.240854 78.193952 177.851789 121.624872 402.713718 15.849198 86.370126 0.514584 135.427168-11.755394 174.775718z"  horiz-adv-x="1024" />

    
    <glyph glyph-name="yao" unicode="&#59235;" d="M744.142415 782.037842A165.7132 165.7132 0 0 1 626.014538 733.250869a24.914201 24.914201 0 0 1 0-36.003711 24.685316 24.685316 0 0 1 35.946489 0c21.103256 21.137588 51.052941 33.268527 82.158499 33.268528s61.055243-12.130939 82.169943-33.268528a24.685316 24.685316 0 0 1 35.935045 0 24.914201 24.914201 0 0 1 0 36.015155 165.7132 165.7132 0 0 1-118.082099 48.775529zM941.201503 812.227857C888.786692 864.699889 814.009755 896 741.10968 896 666.069525 896 595.000535 866.244867 541.075079 812.273635L82.868926 353.392268A281.048672 281.048672 0 0 1 0.012325 151.480805c0.503548-74.662494 29.915353-144.19795 82.799379-195.697218 52.391922-52.472032 127.180303-83.783587 200.080378-83.783587 75.085933 0 146.12059 29.755133 200.046046 83.73781l458.206153 458.915699a281.025783 281.025783 0 0 1 82.845156 201.911463c-0.503548 74.582384-29.903908 144.129285-82.787934 195.662885zM653.366372 201.469428L447.014527-8.235591a231.494932 231.494932 0 0 0-328.199112 0 230.453502 230.453502 0 0 0 0 325.612705l211.421661 211.719212a1.716642 1.716642 0 0 0 2.449076 0L655.357677 205.909809a1.728087 1.728087 0 0 0 0-2.437632zM905.255014 450.634331l-211.421662-211.719213a1.728087 1.728087 0 0 0-2.46052 0l-325.715704 326.16203a1.728087 1.728087 0 0 0 0 2.449077L577.010124 779.268326A231.506376 231.506376 0 0 0 905.255014 779.268326c43.431049-45.01036 67.349598-103.765303 67.349598-165.47287A229.389184 229.389184 0 0 0 905.255014 450.634331z"  horiz-adv-x="1024" />

    
    <glyph glyph-name="yisheng" unicode="&#58884;" d="M926.981 444.114h24.873v-24.023c0-4.29 3.436-7.721 7.726-7.721s7.721 3.43 7.721 7.72v24.024h24.023a7.68 7.68 0 0 1 7.716 7.72 7.68 7.68 0 0 1-7.716 7.722h-24.023v24.883c0 4.29-3.43 7.721-7.72 7.721s-7.727-3.43-7.727-7.721v-24.883h-24.873a7.687 7.687 0 0 1-7.72-7.721 7.68 7.68 0 0 1 7.72-7.721zM97.695 710.534c0-30.89-21.453-56.633-47.191-56.633 25.738 0 47.19-24.883 47.19-56.633 0 30.89 21.448 56.633 47.192 56.633-25.744 0-47.191 24.883-47.191 56.632zM50.499 447.548c-19.733 0-35.18-16.302-35.18-35.18 0-19.742 16.302-35.2 35.18-35.2s34.319 15.458 35.18 35.2c0 19.733-15.443 35.18-35.18 35.18z m0-55.787c-11.157 0-19.733 9.457-19.733 19.743 0 11.161 9.441 19.742 19.733 19.742 10.296 0 18.877-8.58 19.732-19.742 0.005-11.167-9.431-19.743-19.732-19.743zM596.7 439.06c74.112 32.226 126.055 106.138 126.055 191.96 0 115.343-93.855 209.167-209.173 209.167-115.343 0-209.218-93.85-209.218-209.167 0-85.822 51.978-159.714 126.085-191.95-176.487-37.923-309.136-193.94-309.136-380.164a386.8 386.8 0 0 1 10.814-91.177 21.58 21.58 0 0 1 26.06-15.862l0.006 0.005 0.04 0.01a21.565 21.565 0 0 1 15.908 26.025v0.005a342.195 342.195 0 0 0-9.594 80.983c0 135.112 78.612 252.299 192.84 309.213 6.589-66.197 63.37-119.317 135.505-128-5.043-33.28-18.678-151.378 32.41-207.16 17.29-18.827 40.765-28.97 68.024-29.482a65.444 65.444 0 0 1 64.062-52.388c36.04 0 65.372 29.338 65.372 65.373s-29.333 65.372-65.372 65.372c-26.051 0-48.538-15.37-59.04-37.489-0.747 0.077-1.469 0.2-2.232 0.2h-0.732c-15.4 0-27.038 4.818-36.562 15.17-36.428 39.772-27.77 143.74-21.237 180.864 70.538 9.877 125.67 62.367 132.157 127.53 114.232-56.915 192.84-174.106 192.84-309.208a341.75 341.75 0 0 0-9.708-81.147 21.545 21.545 0 0 1 21.023-26.665h0.03a21.524 21.524 0 0 1 20.941 16.446 384.39 384.39 0 0 1 10.937 91.366C905.82 245.115 773.17 401.121 596.7 439.06z m60.688-400.21a22.41 22.41 0 0 0-2.161-44.769 22.415 22.415 0 0 0 2.16 44.77zM346.49 630.995c0.102 92.232 74.854 166.973 167.08 167.066 92.238-0.098 166.98-74.84 167.066-167.066-0.087-92.227-74.818-166.989-167.045-167.107-92.247 0.103-166.999 74.86-167.101 167.107z m167.101-350.96c-63.278 0-114.77 45.286-114.77 100.996 0 1.531 0.139 3.052 0.21 4.578a350.505 350.505 0 0 0 114.54 19.22c40.095 0 78.592-6.825 114.483-19.21 0.082-1.551 0.261-3.057 0.261-4.613-0.005-55.71-51.435-100.972-114.724-100.972z"  horiz-adv-x="1024" />

    
    <glyph glyph-name="wenda" unicode="&#58923;" d="M128 768v-646.7h262.7L512 0l121.3 121.3H896V768H128z m707.4-586.1H608.2L588 161.7l-40.4-40.4-35.6-35.6-35.5 35.5-40.4 40.4-20.2 20.2H188.6V707.4h646.7v-525.5zM512 241.7c22.3 0 40.4 18.1 40.4 40.4 0 22.3-18.1 40.4-40.4 40.4-22.3 0-40.4-18.1-40.4-40.4 0-22.3 18.1-40.4 40.4-40.4zM537.7 644.1c-78.2 16.1-147-43.2-147-118.6h60.6c0 39.7 38.4 70.6 80 57.6 18-5.6 32.6-20.3 38.2-38.3 9.5-30.2-4.2-58.1-27.3-71.5-3.8-2.2-7.8-3.9-12-5.3-1.2-0.4-2.4-0.8-3.6-1.1-26-7.9-45.1-31.8-45.1-60.4v-42.6H542.1v33.3c0 6.6 4.4 12.2 10.6 14.4 17.3 6.3 32.7 16.5 45.4 29.4 27.4 27.8 41.8 68.4 31.8 112.5-10 45-46.8 81.3-92.2 90.6z"  horiz-adv-x="1024" />

    
    <glyph glyph-name="yingyong" unicode="&#58980;" d="M428 150.9V301.5H277c-83.4 0-151-67.4-151-150.6 0-83.2 67.6-150.6 151-150.6 83.4 0.1 151 67.5 151 150.6z m59.5-1.6c0-116.9-95-211.6-212.2-211.6-117.2 0-212.1 94.7-212.1 211.6s95 211.6 212.1 211.6h212.2v-211.6z m103.7 2.8V304.4h152.7c84.3 0 152.7-68.2 152.7-152.3 0-84.1-68.4-152.3-152.7-152.3-84.3 0.1-152.7 68.2-152.7 152.3z m-56.6-2.8c0-116.9 95-211.6 212.1-211.6 117.2 0 212.1 94.7 212.1 211.6s-95 211.6-212.1 211.6H534.6v-211.6z m-105.9 468v-150.7H277.5c-83.5 0-151.1 67.5-151.1 150.7 0 83.3 67.7 150.7 151.1 150.7 83.5 0 151.2-67.5 151.2-150.7z m58.8 2.1c0 116.8-95 211.6-212.2 211.6-117.1 0-212.1-94.7-212.1-211.6 0-116.9 95-211.6 212.1-211.6h212.2V619.4z m108.8-0.7v-149.3H746c82.7 0 149.7 66.8 149.7 149.3 0 82.5-67 149.3-149.7 149.3-82.6 0-149.7-66.8-149.7-149.3z m-61.7 0.7c0 116.8 95 211.6 212.1 211.6 117.2 0 212.1-94.7 212.1-211.6 0-116.9-95-211.6-212.1-211.6H534.6V619.4z m0 0"  horiz-adv-x="1024" />

    
    <glyph glyph-name="mima" unicode="&#58897;" d="M912.49664 537.76384H111.50336c-27.648 0-50.06336-22.92736-50.06336-51.2V-76.8c0-28.28288 22.41536-51.2 50.06336-51.2h800.99328c27.648 0 50.06336 22.92736 50.06336 51.2V486.56384c0 28.28288-22.41536 51.2-50.06336 51.2zM561.90976 88.96512c0-28.19072-22.34368-51.0464-49.90976-51.0464-27.56608 0-49.90976 22.85568-49.90976 51.0464v231.8336c0 28.19072 22.34368 51.0464 49.90976 51.0464 27.56608 0 49.90976-22.85568 49.90976-51.0464v-231.8336zM863.17056 536.82176h-56.08448C807.08608 703.24224 674.7136 838.63552 512 838.63552S216.91392 703.24224 216.91392 536.82176h-56.08448C160.82944 734.8736 318.3616 896 512 896s351.17056-161.1264 351.17056-359.17824z"  horiz-adv-x="1024" />

    
    <glyph glyph-name="i-xinshuai" unicode="&#58950;" d="M910.222222 423.025778C910.222222 533.048889 823.352889 622.250667 716.231111 622.250667c-77.767111 0-144.896-47.104-175.786667-115.029334C509.553778 575.146667 442.424889 622.250667 364.657778 622.250667 257.536 622.193778 170.666667 533.048889 170.666667 423.025778c0-55.409778 22.016-105.528889 57.571555-141.653334l-0.170666-0.113777 287.971555-295.822223c13.482667-13.767111 35.271111-13.767111 48.810667 0l287.971555 295.822223-0.170666 0.113777A201.329778 201.329778 0 0 1 910.222222 423.025778zM364.657778 586.808889c71.338667 0 131.754667-48.184889 152.120889-114.574222 2.787556-10.808889 12.344889-18.773333 23.722666-18.773334a24.632889 24.632889 0 0 1 23.893334 19.740445c20.650667 65.877333 80.782222 113.607111 151.893333 113.607111 88.064 0 159.459556-73.386667 159.459556-163.84 0-32.199111-9.102222-62.293333-24.746667-87.608889h-121.173333l-41.984 145.635556a18.944 18.944 0 0 1-12.003556 16.497777l-0.739556 0.227556a18.204444 18.204444 0 0 1-20.992-6.087111 19.285333 19.285333 0 0 1-3.982222-8.533334l-89.315555-246.613333-50.289778 151.552a18.488889 18.488889 0 0 1-18.033778 12.856889 18.375111 18.375111 0 0 1-16.099555-8.931556L414.890667 290.304l-21.788445 38.115556a18.375111 18.375111 0 0 1-15.018666 9.386666H228.408889a166.286222 166.286222 0 0 0-23.267556 85.219556c0 90.453333 71.395556 163.783111 159.516445 163.783111z m200.192-551.253333c-21.560889-22.072889-27.477333-21.845333-48.810667 0L330.24 226.872889l-70.144 72.248889h106.097778l31.800889-55.751111a18.545778 18.545778 0 0 1 8.362666-7.736889 18.204444 18.204444 0 0 1 24.007111 6.940444L487.537778 337.123556l54.499555-164.408889c2.673778-8.021333 10.126222-13.084444 17.976889-12.8a18.488889 18.488889 0 0 1 17.635556 12.344889L666.737778 417.848889l30.435555-105.472a19.114667 19.114667 0 0 1 5.347556-10.353778 18.204444 18.204444 0 0 1 15.644444-5.404444h100.579556L750.933333 226.929778l-186.083555-191.374222z"  horiz-adv-x="1024" />

    
    <glyph glyph-name="dd" unicode="&#58885;" d="M509.3234467 578.07356842c107.26222546 0 194.20765723-86.90374589 194.20765724-194.1618027 0-107.26222546-86.94612632-194.20765723-194.20765724-194.20765724-107.21567707 0-194.1618027 86.94612632-194.1618027 194.20765724C315.16233854 491.1698232 402.10776964 578.07356842 509.3234467 578.07356842z"  horiz-adv-x="1024" />

    
    <glyph glyph-name="yinshi1" unicode="&#58974;" d="M257.357129 896C148.334389 896 59.791059 782.158575 59.791059 641.814385a259.004299 259.004299 0 0 1 136.127841-240.934232c-7.228027-83.724646-34.333128-384.2901-34.333128-421.634905A100.590042 100.590042 0 0 1 257.357129-127.970486a94.566686 94.566686 0 0 1 96.373693 104.806391c0 48.186846-25.90043 343.33128-33.128457 421.634906a258.401964 258.401964 0 0 1 134.320834 240.934232C454.923199 782.158575 366.379869 896 257.357129 896zM300.725291 461.113711a65.052243 65.052243 0 0 1-36.140135-66.256913c19.877074-224.671171 32.526121-388.506449 32.526121-418.020893 0-19.274739-4.818685-40.958819-39.754148-40.958819a40.356484 40.356484 0 0 0-39.151813 40.958819c0 8.432698 0 64.449907 34.333128 416.816221a66.256914 66.256914 0 0 1-36.74247 66.85925 193.349721 193.349721 0 0 0-99.385371 180.700674C116.410603 746.620776 180.258175 832.152429 257.357129 832.152429a124.683465 124.683465 0 0 0 97.578364-53.005531 222.864165 222.864165 0 0 0 43.970497-137.332513 195.156728 195.156728 0 0 0-98.180699-180.700674zM963.294428 864.076214v-237.320218a248.162259 248.162259 0 0 0-112.034417-215.636138c11.444376-142.151197 27.707437-361.401348 27.707436-403.564838 0-80.712968-45.777504-135.525505-113.239089-135.525506a125.888136 125.888136 0 0 0-113.239089 135.525506c0 37.947142 20.47941 293.939763 29.514444 402.360167a246.957588 246.957588 0 0 0-113.841425 216.840809V864.076214A30.116779 30.116779 0 0 0 596.47206 896a30.116779 30.116779 0 0 0 27.707437-31.923786v-237.320218A180.700674 180.700674 0 0 1 722.360197 460.511376a33.128457 33.128457 0 0 0 18.672403-33.128457c-14.456054-174.677318-30.719115-389.108785-30.719115-421.634906a65.654578 65.654578 0 0 1 56.619544-71.677934c36.140135 0 56.619544 26.502766 56.619545 71.677934 0 30.719115-10.239705 184.314687-28.912108 421.634906a32.526121 32.526121 0 0 0 18.070067 33.128457 180.700674 180.700674 0 0 1 95.169022 165.642284V864.076214a28.309772 28.309772 0 1 0 56.619545 0z m-282.495386-255.992621V864.076214a28.309772 28.309772 0 1 0 56.619544 0v-255.992621a28.309772 28.309772 0 1 0-56.619544 0z m113.239089 0V864.076214a28.309772 28.309772 0 1 0 56.619544 0v-255.992621a28.309772 28.309772 0 1 0-56.619544 0z"  horiz-adv-x="1024" />

    
    <glyph glyph-name="jilu" unicode="&#58891;" d="M768 789.333333h-64v-42.666666h64a85.333333 85.333333 0 0 0 85.333333-85.333334v-618.666666a85.333333 85.333333 0 0 0-85.333333-85.333334H256a85.333333 85.333333 0 0 0-85.333333 85.333334V661.333333a85.333333 85.333333 0 0 0 85.333333 85.333334h64V789.333333h-64a128 128 0 0 1-128-128v-618.666666a128 128 0 0 1 128-128h512a128 128 0 0 1 128 128V661.333333a128 128 0 0 1-128 128zM405.333333 789.333333h213.333334v-42.666666H405.333333zM341.333333 853.333333h42.666667v-170.666666h-42.666667zM640 853.333333h42.666667v-170.666666h-42.666667zM277.333333 554.666667h469.333334v-42.666667H277.333333zM277.333333 362.666667h469.333334v-42.666667H277.333333zM277.333333 170.666667h298.666667v-42.666667H277.333333z"  horiz-adv-x="1024" />

    
    <glyph glyph-name="icon-el-icon-applications" unicode="&#58893;" d="M1008.302197 589.443265L789.691542 370.83261000000005C769.561962 350.70303 736.950904 350.70303 716.821324 370.83261000000005L498.2391 589.443265C478.10952 609.544414 478.10952 642.183903 498.2391 662.285052L716.821324 880.895707C736.950904 901.025287 769.561962 901.025287 789.691542 880.895707L1008.302197 662.285052C1028.431777 642.183903 1028.431777 609.544414 1008.302197 589.443265ZM753.668691 841.176747L537.958061 625.466116 753.668691 409.755485 969.379322 625.466116 753.668691 841.176747ZM369.841946-127.97156800000005L57.094228-127.97156800000005C25.677298-127.97156800000005 0.231007-102.52527699999996 0.231007-71.10834699999998L0.231007 241.63937099999998C0.231007 273.027869 25.677298 298.50259300000005 57.094228 298.50259300000005L369.841946 298.50259300000005C401.230445 298.50259300000005 426.705168 273.027869 426.705168 241.63937099999998L426.705168-71.10834699999998C426.705168-102.52527699999996 401.230445-127.97156800000005 369.841946-127.97156800000005ZM369.841946 241.63937099999998L57.094228 241.63937099999998 57.094228-71.10834699999998 369.841946-71.10834699999998 369.841946 241.63937099999998ZM369.841946 383.797425L57.094228 383.797425C25.677298 383.797425 0.231007 409.243716 0.231007 440.660646L0.231007 753.408364C0.231007 784.796863 25.677298 810.271586 57.094228 810.271586L369.841946 810.271586C401.230445 810.271586 426.705168 784.796863 426.705168 753.408364L426.705168 440.660646C426.705168 409.243716 401.230445 383.797425 369.841946 383.797425ZM369.841946 753.408364L57.094228 753.408364 57.094228 440.660646 369.841946 440.660646 369.841946 753.408364ZM568.863221 298.50259300000005L881.61094 298.50259300000005C912.999438 298.50259300000005 938.474161 273.027869 938.474161 241.63937099999998L938.474161-71.10834699999998C938.474161-102.52527699999996 912.999438-127.97156800000005 881.61094-127.97156800000005L568.863221-127.97156800000005C537.446292-127.97156800000005 512-102.52527699999996 512-71.10834699999998L512 241.63937099999998C512 273.027869 537.446292 298.50259300000005 568.863221 298.50259300000005ZM568.863221-71.10834699999998L881.61094-71.10834699999998 881.61094 241.63937099999998 568.863221 241.63937099999998 568.863221-71.10834699999998Z"  horiz-adv-x="1024" />

    
    <glyph glyph-name="sousuo" unicode="&#58918;" d="M642.5 656.1c-22.9 46.1-58.1 85-101.7 112.6C496 797 444.1 812 390.9 812c-69.2 0-139.3-25.3-202.8-73.3-1.8-1.4-3.5-3-4.8-4.8-41.2-54.5-65.3-112.3-71.7-171.9-5.8-54.1 3.8-108 27.6-155.9 22.9-46.1 58.1-85 101.7-112.6 44.8-28.3 96.7-43.3 149.9-43.3 69.2 0 139.3 25.3 202.8 73.3 1.8 1.4 3.4 3 4.8 4.8 41.2 54.5 65.3 112.3 71.6 171.9 5.9 54-3.6 107.9-27.5 155.9z m-64.6-312C519 299.7 454.4 276.2 391 276.2c-97.4 0-184.9 54.2-228.4 141.5-46.8 94.1-31.7 203.5 41.4 300.4 58.9 44.4 123.5 67.9 187 67.9 97.4 0 184.9-54.2 228.3-141.5 46.8-94.1 31.7-203.6-41.4-300.4zM648.834 303.55l19.973 16.646 243.596-292.3-19.973-16.646z"  horiz-adv-x="1024" />

    
    <glyph glyph-name="zhongyi1" unicode="&#58894;" d="M318.579383-29.396740000000023c-6.415805-0.10115-12.744909-0.209525-19.077626-0.390151-39.654442-0.574388-79.334171-1.231863-118.894687-2.817752-11.892359 3.94124-9.338319 16.704212-9.26607 26.90592 12.091046 30.872448 43.83772 39.379891 71.964666 50.513625 9.081832 1.510026 22.003754 4.920229 51.944175 10.382332 40.228829 5.205616 80.649122 7.268355 121.174176 7.860806 56.387554-3.236802 113.410908-6.925168 166.117322-28.621859 17.462838-9.070994 30.048797-15.591561 39.567742-33.159161 5.368179-2.637127 2.554039-18.875326 1.791801-23.510168-9.822395-7.752431-10.674945-8.388231-23.694405-8.691681-93.874494 3.486065-187.73815 0.939251-281.627094 1.528089zM18.069738 179.86831299999994c-0.1734 5.180329-0.270938 10.295633-0.36125 15.400099 0.18785 47.493572 0.18785 47.493572-0.867001 134.558498 1.622014 4.147153 8.229281 3.489678 11.910422 3.782291 24.929881-5.480167 50.990475-9.91632 76.310505-13.709448 11.422733-10.19087 19.745939-23.506555 32.386087-32.093473 8.695294-1.900176 16.238199-2.850265 25.128568-3.211515 8.872306 3.211515 15.107486 6.990193 20.215565-3.301828 3.095915-1.723164 4.811854-3.413815 7.07328-6.061779 4.717928-2.467339 9.526169-4.992479 14.356086-7.550131 13.413222-1.690651 23.97618-3.121202 37.490552-2.741889 0.653863 0.755013 0.653863 0.755013 9.81517 4.139928 2.92974 1.813476 5.848642 3.587215 8.893981 5.407916 3.95569 4.988866 8.391844 6.802342 13.116997 1.314951 10.656883-5.671629 15.764962-7.37673 16.418825-8.124518 5.953404-1.123488 5.953404-1.123488 23.336767-1.777351 17.936076 1.986876 33.054399 6.39413 45.434446 20.56959 12.351147 7.37673 27.852395 7.459818 41.821943 9.562294 10.490708 5.169491 14.366923 6.101517 24.933493 11.502208 0.097538 0.379313 0.195075 0.755013 0.292613 1.044014 30.11021 16.80175 57.789205 19.341339 91.782855 16.80175 13.503535-2.362577 27.02152-4.735991 40.514217-7.084118 26.73252-9.826007 55.802328-13.882848 81.88821-25.388669 24.095393-6.802342 48.176335-13.61191 72.33314-20.41064 1.221026-0.5491 2.456502-1.224638 3.677528-1.896564 36.081676-9.721245 73.965992-17.184675 106.930078-35.214675 0.466013-1.051238 0.466013-1.051238 11.043421-8.500219 10.674945-12.849672 15.288111-21.898991 10.75442-39.094504-22.838242-36.273139-70.740027-13.142285-102.157962-4.996091-12.762972 5.173104-25.612644 9.522557-39.018641 12.466747-21.259578 8.500219-43.80882 14.338023-64.779398 23.304254a1073.664686 1073.664686 0 0 1-18.416538 2.362577c-16.538037-3.301827-21.252353-4.905779-23.156142-21.140365 0.671925-3.229577 1.430551-6.426642 2.181951-9.634545 2.745502-2.456502 5.559642-4.905779 8.424357-7.36228 19.91934-8.146193 40.69123-12.654597 61.470345-18.528526 2.82859-3.197065 23.228392-7.44898 27.678995-8.026981 16.137049-6.621717 34.719763-11.729796 51.929725-15.118324 30.608735-11.234883 63.449996-22.657617 96.146758-24.731193 16.71505 0.852551 22.838242 2.749115 34.170663 14.822098 6.24963 11.895971 16.650025 22.104904 24.088168 33.44455 1.318563 0.552713 2.752727 3.388527 6.802342 7.452593 15.656586 21.826741 15.656586 21.826741 27.306908 36.052776 23.799167 20.226402 49.465999 9.374444 65.061172-13.955098 1.510026-3.587215 3.012827-7.181655 4.537304-10.776095 0.111988-4.226628 0.169788-8.492994 0.368475-12.831609-3.034502-7.557356-5.292316-14.934086-11.065096-20.681578-6.217117-9.555069-16.870387-18.423763-21.14759-28.531546-4.226628-5.653567-9.721245-16.137049-15.642137-19.825414-23.741367-32.761786-41.764143-69.407013-79.251083-86.486926-32.407761-9.060157-67.253962-7.943893-98.58881 4.05684-18.062513 4.237466-35.518126 12.174134-53.743201 15.566274-7.676568 3.500515-14.272998 5.194779-22.480604 6.141255-31.461286 12.658209-65.935398 19.279927-98.032485 30.034347-18.882551 4.710703-37.309927 11.708121-56.380328 16.155111-21.357116 9.623707-50.903775 11.054258-73.763692 14.533099-3.222352 3.211515-44.282057 0.964538-50.892937 0.964538-10.212545-1.430551-82.354223-6.834855-107.573104-9.55507-15.587949-0.859776-29.759797-2.358964-44.943145-5.483779-16.819812-1.520864-33.643237-3.10314-50.351062-4.703478-36.930615-7.839131-74.97388-8.706131-111.987582-16.057574-29.857334-3.038115-59.133056-9.826007-88.882015-13.608298-4.147153 1.304113-4.609553 2.936965-5.942567 6.997418 0.4624 39.932604 0.935638 79.897721 1.398038 119.758075zM976.53894 678.202215v-16.332124c0.393763-22.104904 0.762238-44.282057 1.148776-66.484499 1.282438-17.950526 8.211219-35.604826-12.578734-39.860354-52.973739-2.821365-105.857165-9.533394-158.906767-13.976773-21.837578-3.583603-43.653482-4.905779-65.772835-6.408579-14.244098-2.745502-33.784125-5.299541-34.452438-6.054555-14.634248-4.425316-21.259578-21.895379-26.909532-34.362125a775.019093 775.019093 0 0 1-10.024695-14.272998c-9.623707-7.268355-19.91934-16.035899-28.137783-24.828731-10.295633-6.50973-10.295633-6.50973-17.285825-12.275284a3623.509941 3623.509941 0 0 1-34.474113-19.745939 1865.919029 1865.919029 0 0 1-58.54783-28.318408c-25.392281-10.85557-50.7087-25.211656-76.668144-34.474113-16.534425-3.504128-28.242546-0.755013-38.733253 12.835222-9.822395 26.64582 4.349453 43.913582 25.128568 58.851281 15.396486 9.818782 29.268496 21.711141 44.650533 31.255372 9.081832 8.774769 20.602103 12.849672 29.561109 21.245128 12.083821 6.975743 24.46748 13.315685 35.814351 21.613604 0.830876 1.622014 0.830876 1.622014 2.059127 2.088026 0.379313 2.554039 0.755013 5.100854 1.22825 7.658506-3.684753 10.664108-7.535681 13.116997-14.442785 20.764665-12.369209 8.319594-56.575404 42.114556-73.091766 25.583744-5.566867-17.26415-16.057574-33.321724-22.585367-50.5931-3.39214-6.166542-6.123192-13.608297-10.95672-23.159754-3.760615-10.945883-10.945883-20.38174-14.908799-31.342073-9.529782-12.744909-13.796148-30.32696-21.812291-44.19897-5.570479-13.214535-12.838834-24.637268-17.011275-38.437028-8.673619-13.023072-12.820772-29.170959-21.140365-42.587794-7.842743-19.756777-20.41064-30.78936-40.99468-36.540464-18.420151-0.559938-29.080646 4.519241-39.004191 19.720652-4.808241 2.088027-5.845029 2.846652-10.562958 0.10115-8.883144-11.527496-19.670077-19.623114-33.813025-22.953842-14.547548 0.205913-21.245128 0.671925-31.461285 11.422734-3.587215 7.00103-6.607267 17.571213-16.140662 16.812587-6.701192-4.526466-6.701192-4.526466-11.242108-6.791505-16.335737-5.006929-28.618246-5.006929-40.033755 10.08972-5.111691 11.885134-2.192789 23.069442 0.559938 35.214676 11.892359 27.216595 26.060594 53.475877 38.234728 80.486558 6.047329 9.90187 9.363607 21.241516 14.930474 31.342073 0.278163 0.10115 0.570775 0.195075 0.942863 0.292613 7.564581 19.922952 21.339053 38.538178 28.047471 58.728456 0.852551 1.224638 1.788189 2.452889 2.741889 3.605277-2.647964 10.096945-4.714316 12.842447-14.26216 7.831906-6.607267-7.831906-14.168235-18.044451-23.23923-23.134467-1.224638-1.618401-2.358964-3.21874-3.489677-4.819078-20.775503-20.204727-40.991068-44.860058-66.578424-59.208919-17.661525-5.570479-32.866549-4.808241-43.252494 11.892359-1.885726 5.946179-1.885726 5.946179-3.211515 14.168235 1.130713 16.238199 3.980978 32.588386 18.886164 41.926706 1.423326 2.088027 2.918902 4.07129 4.443378 6.043717 24.26518 18.416538 43.714895 45.622296 69.034925 62.424046 7.00103 12.571509 28.043858 19.175164 35.023214 32.396923 3.688365 2.452889 6.535017 5.010541 9.555069 8.222056 12.372822 8.695294 23.405405 19.550864 36.150314 27.657321 8.792831 8.496606 19.471389 15.595174 29.470797 22.574529 7.365893 3.023665 13.413222 9.081832 20.876652 10.577407 5.772779 4.819079 11.419121 5.852254 17.759063 9.533395 13.041135 4.345841 26.154519 8.594144 39.289579 12.842447 25.395894 1.622014 49.563536-1.589501 74.883568-2.452889 23.99063-2.626289 48.060735-4.049615 72.152515-5.379017 2.355352-0.559938 4.717928-1.130713 7.07328-1.697876 22.195216-1.033176 44.477133-2.084414 66.773499-3.113977 13.778085 1.983264 27.292457 6.137642 41.189755 8.496606 19.810965 5.942567 40.131292 9.349157 60.050632 14.439173 2.257814 1.152388 54.49099 13.608297 55.15569 14.370535 27.953545 5.379016 28.632696 6.137642 36.562139 7.268356 32.393311 8.594144 65.238185 16.798137 98.01081 23.893092a65483.799337 65483.799337 0 0 0 67.799449 17.285825c38.447866 11.986284 38.447866 11.986284 42.504706 12.650985 6.730092 0 7.853581-1.426939 11.429959-6.701193 0.296225-6.805955 0.296225-6.805955-2.532365-44.01112l-0.863388-71.690115z"  horiz-adv-x="1024" />

    
    <glyph glyph-name="xinaixin" unicode="&#58935;" d="M1066.666667 793.6c-136.533333 128-341.333333 136.533333-477.866667 8.533333-145.066667 128-349.866667 119.466667-486.4-8.533333-136.533333-136.533333-136.533333-349.866667 0-486.4l401.066667-401.066667c42.666667-42.666667 110.933333-42.666667 153.6 0l401.066666 401.066667c145.066667 128 145.066667 349.866667 8.533334 486.4z m-51.2-435.2L614.4-42.666667c-17.066667-17.066667-34.133333-17.066667-51.2 0L153.6 358.4C42.666667 460.8 42.666667 640 153.6 742.4 256 844.8 426.666667 844.8 537.6 750.933333l51.2-42.666666 51.2 42.666666C750.933333 853.333333 913.066667 844.8 1024 742.4c93.866667-110.933333 93.866667-281.6-8.533333-384z"  horiz-adv-x="1169" />

    
    <glyph glyph-name="shijian" unicode="&#58908;" d="M512-128C229.226-128 0 101.238 0 384S229.226 896 512 896s512-229.226 512-512-229.226-512-512-512z m0 981.325c-258.787 0-469.336-210.573-469.336-469.336S253.214-85.336 512-85.336 981.336 125.214 981.336 384 770.786 853.336 512 853.336zM490.668 384V704.001h42.664V405.31h149.335v-42.664H490.668z"  horiz-adv-x="1024" />

    
    <glyph glyph-name="kepu" unicode="&#58925;" d="M2.8672 417.314133v-25.8048h202.752v51.6096H2.8672v-25.8048z m0 0M2.8672 829.917867h202.752v-51.6096H2.8672zM307.2 829.917867h713.9328v-51.6096H307.2zM2.8672 56.183467h202.752v-51.6096H2.8672zM307.2 417.314133v-25.8048h713.9328v51.6096H307.2v-25.8048z m0 0M299.008 56.183467h721.988267v-51.6096H299.008z"  horiz-adv-x="1024" />

    
    <glyph glyph-name="home_my" unicode="&#58895;" d="M849.06666668-4.190950530000009H189.43999999c-17.06666667 0-34.13333333 8.53333335-45.22666666 21.33333335l-0.85333333 0.85333333c-11.09333333 15.36000001-14.50666667 33.28-10.24 49.49333338 34.98666667 177.49333333 181.76 312.32000001 356.69333334 326.82666663 4.26666667 0.85333333 7.68 1.70666668 11.09333333 1.70666665h32.42666666l-4.26666666-42.66666666h-17.06666667c-6.82666667 0-10.24 0-15.36000001-1.70666666h-2.55999999c-157.86666667-11.09333333-290.13333333-132.26666667-320.85333333-293.54666667-0.85333333-4.26666667-0.85333333-10.24 3.41333333-14.50666668l0.85333333-1.70666666c2.56-3.41333333 6.82666667-5.12000001 11.94666668-5.11999998h660.47999999c5.12000001 0 9.38666666 1.70666668 11.94666668 5.11999998 4.26666667 5.12000001 5.12000001 10.24 4.26666665 16.21333334-19.62666667 105.81333333-83.62666668 195.41333333-174.08 246.61333333l-0.85333332 0.85333334c-6.82666667 4.26666667-15.36000001 8.53333335-23.04000001 12.8-2.56 1.70666668-5.12000001 2.56-7.67999999 4.26666666l-11.94666669 5.12000001 17.06666668 38.39999998 11.94666668-5.11999999c8.53333335-3.41333333 17.06666667-8.53333335 24.74666665-11.94666665l10.24-5.12000002c102.4-58.02666667 173.22666666-158.72000001 196.26666667-276.47999995 4.26666667-17.06666667 0-34.98666667-12.80000001-50.34666671-11.94666668-13.65333333-29.86666667-21.33333333-46.93333331-21.33333335zM523.94666668 366.15571614c-107.52000001 0-196.26666668 88.74666667-196.26666668 196.26666667s88.74666667 196.26666668 196.26666668 196.26666668 196.26666668-88.74666667 196.26666665-196.26666668-89.6-196.26666668-196.26666667-196.26666666z m-2e-8 361.81333335C431.78666666 727.96904949 358.4 653.72904949 358.4 562.42238281s74.24-165.54666668 165.54666668-165.54666667 165.54666668 74.24 165.54666665 165.54666667-74.24 165.54666668-165.54666667 165.54666668zM523.94666668 361.88904948000004c-110.93333334 0-200.53333333 89.6-200.53333335 200.53333333s89.6 200.53333333 200.53333335 200.53333334 200.53333333-89.6 200.53333332-200.53333334-90.45333334-200.53333333-200.53333334-200.53333333z m-2e-8 392.53333334c-105.81333333 0-192-86.18666667-191.99999999-192.00000001S418.13333332 370.42238282999995 523.94666668 370.42238282999995s192 86.18666667 191.99999999 191.99999998-86.18666667 192-191.99999999 192.00000001z m0-361.81333333c-93.86666668 0-169.81333333 75.94666667-169.81333333 169.81333332s75.94666667 169.81333333 169.81333335 169.81333333c93.86666668 0 169.81333333-75.94666667 169.81333332-169.81333333S616.96 392.60904949 523.94666668 392.60904949z m0 331.09333333c-88.74666667 0-161.28-72.53333333-161.27999999-161.28000001C362.66666667 473.67571614 435.19999999 401.14238282 523.94666668 401.14238282s161.28 72.53333333 161.27999998 161.27999999c0 88.74666667-72.53333333 161.28-161.27999998 161.28000001zM261.97333333 137.46238282000002c-1.70666668 0-4.26666667 0.85333333-5.97333333 1.70666666-5.97333333 3.41333333-8.53333335 11.09333333-5.11999999 17.06666667 75.09333333 145.92 238.08 173.22666666 244.90666666 174.08000002 6.82666667 0.85333333 13.65333333-3.41333333 14.50666665-10.24000002 0.85333333-6.82666667-3.41333333-13.65333333-10.24-14.50666666-1.70666668 0-157.01333333-26.45333333-226.13333332-160.42666667-2.56-5.12000001-6.82666667-7.68-11.94666667-7.68zM232.96 63.22238282000001c-6.82666667 0-12.8 5.97333333-12.80000001 12.8 0 24.74666667 16.21333333 51.2 18.77333334 53.76000001 3.41333333 5.97333333 11.94666668 7.68 17.92 4.26666666 5.97333333-3.41333333 7.68-11.94666668 4.26666666-17.92000001-4.26666667-5.97333333-14.50666667-25.60000001-14.50666666-40.10666666-0.85333333-6.82666667-5.97333333-12.8-13.65333333-12.8z"  horiz-adv-x="1024" />

    
    <glyph glyph-name="set" unicode="&#59096;" d="M594.944-66.55999999999995H426.496c-26.624 0-49.152 19.456-52.736 45.568L360.448 71.67999999999995c-15.872 7.68-31.744 16.896-46.592 26.624l-89.6-35.84c-24.576-8.704-52.224 1.536-65.024 24.064L75.264 230.39999999999998c-13.312 23.04-7.68 51.712 12.8 68.096l74.752 57.856c-1.024 9.728-1.024 18.432-1.024 26.624s0 16.896 1.024 26.624L89.6 468.48c-20.992 16.384-26.624 45.568-13.312 68.096l83.968 144.896c12.8 22.528 40.96 32.768 65.024 23.04l88.576-35.328c14.848 10.24 30.208 18.944 46.08 26.624L373.76 789.504c3.584 26.112 26.112 45.568 52.736 45.056h168.448c26.624 0 49.152-19.456 52.224-45.568L660.48 696.3199999999999c15.872-7.68 31.744-16.896 46.592-26.624l89.6 35.84c24.576 8.704 52.224-1.536 65.024-24.064L945.152 537.6c13.312-23.04 7.68-51.712-12.8-68.096l-74.752-57.856c0.512-8.192 1.024-16.896 1.024-26.624s-0.512-18.432-1.024-26.624l74.752-57.856c20.48-16.384 26.112-45.056 13.312-67.584l-84.48-145.408c-12.8-22.528-40.96-32.768-65.024-23.04l-88.576 35.328c-14.848-10.24-30.208-18.944-46.08-26.624l-13.824-93.184c-4.096-27.648-26.112-46.592-52.736-46.592z m-158.72 64.512h148.992l16.896 119.296 16.896 7.168c23.04 9.728 44.544 22.016 64.512 36.864l14.336 10.752 112.64-45.056 74.24 128-95.232 74.24 2.048 18.432c3.584 24.576 3.584 49.664 0 74.24l-2.048 18.432 95.232 74.24-74.752 128.512-112.64-45.056-14.336 11.264c-19.456 14.848-40.96 27.648-64 36.864l-16.896 6.656-16.896 119.296H436.224l-17.408-119.296-16.896-7.168c-23.04-9.728-44.544-22.016-64.512-36.864l-14.336-10.752-112.128 45.056-74.24-128 95.232-74.24-2.048-18.432c-1.536-12.288-2.56-24.576-2.56-36.864 0-12.288 1.024-24.576 2.56-36.864l2.048-18.432L136.704 256l74.24-128.512 112.64 45.056 14.336-11.264c19.456-14.848 40.96-27.648 64-36.864l16.896-7.168 17.408-119.296z m369.152 120.32zM216.576 650.24z m294.4-444.928c-98.816 0.512-178.176 80.896-177.664 179.712 0.512 98.816 80.896 178.176 179.712 177.664 98.304-0.512 177.664-80.384 177.664-178.688-0.512-98.816-80.896-178.688-179.712-178.688z m0 292.864c-62.976-0.512-113.664-52.224-113.152-115.2 0.512-62.976 52.224-113.664 115.2-113.152 62.464 0.512 113.152 51.712 113.152 114.176-0.512 63.488-52.224 114.688-115.2 114.176z"  horiz-adv-x="1024" />

    
    <glyph glyph-name="fanhui" unicode="&#59052;" d="M766.976-125.952c-10.24 0-20.48 3.584-28.672 10.752l-509.952 472.576c-15.872 14.336-15.872 38.4 0 52.736l509.952 472.576c15.872 14.336 40.96 14.336 56.832 0 15.872-14.336 15.872-38.4 0-52.736l-481.28-445.952 481.28-445.952c15.872-14.336 15.872-38.4 0-52.736-7.68-7.168-17.92-11.264-28.16-11.264z"  horiz-adv-x="1024" />

    
    <glyph glyph-name="dianhuazixunhuawuzongheguanlibl" unicode="&#58899;" d="M885.10450547 892.77934931H138.89549453c-74.62063808 0-135.67484385-61.05420575-135.67484384-135.67484384v-746.20901094c0-74.62063808 61.05420575-135.67484385 135.67484384-135.67484384h746.20901094c74.62063808 0 135.67484385 61.05420575 135.67484384 135.67484384V757.10450547c0 74.62063808-61.05420575 135.67484385-135.67484384 135.67484384zM749.42966163 103.32371888c-43.24530441-43.24661949-203.51095067-1.69646158-362.08013536 156.02580739-158.56918468 158.56918468-199.27242689 318.83483094-155.17757661 362.08013536 37.30900395 37.31031903 83.10031582 102.60304858 150.93773775 17.80758627s34.76562667-108.53934904-4.23983888-146.69789886c-27.13549481-27.13417972 29.67887209-94.97160165 88.18838548-153.48111503 59.35774418-58.50951339 126.34693531-115.32388028 153.48111503-88.18970055 39.00546554 39.00678063 62.74935226 72.07857588 146.69789886 4.24115395 84.7967774-68.6856527 19.50273277-115.32388028-17.80627118-151.78728362z"  horiz-adv-x="1024" />

    
    </font>
</defs>
</svg>
